<?xml version="1.0" encoding="UTF-8" standalone="no"?> <svg xmlns="http://www.w3.org/2000/svg" viewBox="0 0 42.67 64"><defs><style>.cls-1{fill:#35353d;}</style></defs><title>Asset 65</title><g id="Layer_2" data-name="Layer 2"><g id="Layer_1-2" data-name="Layer 1"><path class="cls-1" d="M34.67,26.08V13.33A13.34,13.34,0,0,0,8,13.33a2.67,2.67,0,1,0,5.33,0,8,8,0,0,1,16,0V23A21.24,21.24,0,0,0,0,42.67,21.34,21.34,0,1,0,34.67,26.08ZM24,58.43v-8.5a5.34,5.34,0,1,0-5.33,0v8.5a16,16,0,0,1-6.48-28.88,16.19,16.19,0,0,1,18.28,0A16,16,0,0,1,24,58.43Z"/></g></g></svg>