<?xml version="1.0" encoding="iso-8859-1"?>
<!-- Generator: Adobe Illustrator 18.1.1, SVG Export Plug-In . SVG Version: 6.00 Build 0)  -->
<svg version="1.1" id="Capa_1" xmlns="http://www.w3.org/2000/svg" xmlns:xlink="http://www.w3.org/1999/xlink" x="0px" y="0px"
	 viewBox="0 0 611.999 611.999" style="enable-background:new 0 0 611.999 611.999;" xml:space="preserve">
<g>
	<g>
		<path d="M566.058,16.271c-0.037-2.156-0.498-4.342-1.432-6.438c-3.724-8.36-13.518-12.118-21.883-8.396L214.115,147.802
			c-6.087,2.711-9.719,8.641-9.812,14.891c-0.014,0.998-0.017,271.821-0.017,271.821c-13.279-9.183-29.515-14.152-46.941-14.152
			c-27.781,0-56.079,12.364-77.637,33.92c-40.277,40.281-45.279,100.82-11.148,134.95c14.684,14.684,35.038,22.768,57.314,22.768
			c27.782,0,56.078-12.362,77.636-33.918c19.081-19.079,30.957-43.279,33.443-68.136c0.387-3.871,0.548-7.68,0.479-11.432
			c0.008-0.231,0-189.166,0-189.166l295.485-131.3v196.884c-13.278-9.183-29.512-14.152-46.939-14.152
			c-27.781,0-56.079,12.364-77.639,33.922c-40.28,40.281-45.28,100.82-11.147,134.949c14.684,14.684,35.036,22.769,57.312,22.769
			c27.781,0,56.079-12.362,77.636-33.918c22.489-22.492,34.094-51.296,33.92-78.293C566.132,439.562,566.076,17.321,566.058,16.271z
			 M203.972,506.647c-1.726,17.267-10.214,34.314-23.899,47.999c-15.389,15.388-35.144,24.211-54.201,24.211
			c-9.495,0-23.083-2.266-33.878-13.061c-21.207-21.207-16.206-60.721,11.15-88.077c15.388-15.388,35.143-24.214,54.2-24.214
			c9.497,0,23.083,2.268,33.879,13.062C201.047,476.391,205.576,490.624,203.972,506.647z M237.43,273.079V173.7L532.915,42.098
			v99.682 M508.701,495.065c-15.388,15.387-35.141,24.21-54.2,24.21c-9.494,0-23.083-2.268-33.879-13.062
			c-21.207-21.207-16.204-60.719,11.15-88.076c15.391-15.389,35.144-24.214,54.203-24.214c9.497,0,23.08,2.266,33.876,13.062
			C541.062,428.192,536.059,467.704,508.701,495.065z"/>
	</g>
</g>
<g>
</g>
<g>
</g>
<g>
</g>
<g>
</g>
<g>
</g>
<g>
</g>
<g>
</g>
<g>
</g>
<g>
</g>
<g>
</g>
<g>
</g>
<g>
</g>
<g>
</g>
<g>
</g>
<g>
</g>
</svg>
