<?xml version="1.0" encoding="iso-8859-1"?>
<!-- Generator: Adobe Illustrator 18.1.1, SVG Export Plug-In . SVG Version: 6.00 Build 0)  -->
<svg version="1.1" id="Capa_1" xmlns="http://www.w3.org/2000/svg" xmlns:xlink="http://www.w3.org/1999/xlink" x="0px" y="0px"
	 viewBox="0 0 612 612" style="enable-background:new 0 0 612 612;" xml:space="preserve">
<g>
	<g>
		<g>
			<path d="M305.999,0.001C137.271,0.001,0,137.271,0,306c0,168.73,137.271,305.999,305.999,305.999S612,474.729,612,306
				S474.729,0.001,305.999,0.001z M305.999,576.224C156.997,576.224,35.776,455.004,35.776,306
				c0-149.001,121.221-270.223,270.223-270.223S576.224,156.999,576.224,306C576.224,455.004,455.003,576.224,305.999,576.224z"/>
			<path d="M301.234,209.422c36.608,0,66.39-29.784,66.39-66.392c0-36.61-29.782-66.393-66.39-66.393
				c-36.61,0-66.392,29.784-66.392,66.393C234.842,179.638,264.625,209.422,301.234,209.422z M301.234,112.413
				c16.88,0,30.614,13.735,30.614,30.617c0,16.88-13.734,30.616-30.614,30.616c-16.882,0-30.616-13.734-30.616-30.616
				S284.352,112.413,301.234,112.413z"/>
			<path d="M412.174,431.684h-35.368V243.916c0-9.879-8.009-17.888-17.888-17.888H199.826c-9.879,0-17.888,8.009-17.888,17.888
				v55.953c0,9.88,8.009,17.888,17.888,17.888h44.197v113.927h-34.496c-9.879,0-17.888,8.009-17.888,17.888v67.906
				c0,9.88,8.009,17.888,17.888,17.888h202.646c9.879,0,17.888-8.008,17.888-17.888v-67.906
				C430.063,439.693,422.053,431.684,412.174,431.684z M394.286,499.59h-166.87v-32.13h34.496c9.879,0,17.888-8.008,17.888-17.888
				V299.869c0-9.879-8.009-17.888-17.888-17.888h-44.199v-20.176h123.318v187.768c0,9.88,8.009,17.888,17.888,17.888h35.368v32.13
				H394.286z"/>
		</g>
	</g>
</g>
<g>
</g>
<g>
</g>
<g>
</g>
<g>
</g>
<g>
</g>
<g>
</g>
<g>
</g>
<g>
</g>
<g>
</g>
<g>
</g>
<g>
</g>
<g>
</g>
<g>
</g>
<g>
</g>
<g>
</g>
</svg>
