<?xml version="1.0" encoding="iso-8859-1"?>
<!-- Generator: Adobe Illustrator 18.1.1, SVG Export Plug-In . SVG Version: 6.00 Build 0)  -->
<svg version="1.1" id="Capa_1" xmlns="http://www.w3.org/2000/svg" xmlns:xlink="http://www.w3.org/1999/xlink" x="0px" y="0px"
	 viewBox="0 0 612 612" style="enable-background:new 0 0 612 612;" xml:space="preserve">
<g>
	<g>
		<g>
			<path d="M596.463,194.265l-58.016-8.687v-42.411c0-10.072-8.166-18.238-18.238-18.238H18.238C8.166,124.928,0,133.095,0,143.167
				v325.667c0,10.072,8.166,18.238,18.238,18.238h501.971c10.072,0,18.238-8.166,18.238-18.238v-42.408l58.016-8.69
				c8.929-1.337,15.537-9.007,15.537-18.036V212.303C612,203.274,605.392,195.603,596.463,194.265z M575.524,383.988l-58.016,8.69
				c-8.931,1.337-15.537,9.007-15.537,18.036v39.881H36.476v-289.19h465.494v39.884c0,9.029,6.608,16.699,15.537,18.036
				l58.016,8.689V383.988z"/>
			<path d="M410.515,340.377h-45.203v-67.385h45.203c10.072,0,18.238-8.166,18.238-18.238c0-10.072-8.166-18.238-18.238-18.238
				h-45.203v-10.122c0-10.072-8.166-18.238-18.238-18.238h-41.968c-0.357,0-0.714,0.011-1.07,0.032
				c-45.478,2.673-82.272,36.257-90.463,79.575h-90.983c-10.072,0-18.238,8.166-18.238,18.238s8.166,18.238,18.238,18.238h90.981
				c8.192,43.32,44.986,76.906,90.466,79.573c0.356,0.021,0.713,0.03,1.068,0.03h41.968c10.072,0,18.238-8.166,18.238-18.238v-8.751
				h45.203c10.072,0,18.238-8.166,18.238-18.238C428.754,348.545,420.587,340.377,410.515,340.377z M328.836,367.367h-23.161
				c-32.196-2.149-57.342-29.008-57.342-61.367c0-32.356,25.147-59.216,57.344-61.368h23.159V367.367z"/>
		</g>
	</g>
</g>
<g>
</g>
<g>
</g>
<g>
</g>
<g>
</g>
<g>
</g>
<g>
</g>
<g>
</g>
<g>
</g>
<g>
</g>
<g>
</g>
<g>
</g>
<g>
</g>
<g>
</g>
<g>
</g>
<g>
</g>
</svg>
