<?xml version="1.0" encoding="iso-8859-1"?>
<!-- Generator: Adobe Illustrator 18.1.1, SVG Export Plug-In . SVG Version: 6.00 Build 0)  -->
<svg version="1.1" id="Capa_1" xmlns="http://www.w3.org/2000/svg" xmlns:xlink="http://www.w3.org/1999/xlink" x="0px" y="0px"
	 viewBox="0 0 612.002 612.002" style="enable-background:new 0 0 612.002 612.002;" xml:space="preserve">
<g>
	<g>
		<path d="M552.922,0H59.08C26.502,0,0.001,26.502,0.001,59.079v95.445v99.542v103.869v99.544v95.444
			c0,32.576,26.501,59.079,59.079,59.079h493.842c32.576,0,59.079-26.502,59.079-59.079V59.079C612.001,26.502,585.498,0,552.922,0z
			 M36.382,172.715h76.913v63.161H36.382V172.715z M131.486,339.743h-19.362v-67.487h19.362c10.046,0,18.191-8.143,18.191-18.191
			v-99.542c0-10.046-8.145-18.191-18.191-18.191h-19.362v-24.209h387.754v387.753H112.124v-24.209h19.362
			c10.046,0,18.191-8.143,18.191-18.191v-99.544C149.677,347.888,141.532,339.743,131.486,339.743z M36.382,272.257h39.36v67.487
			h-39.36V272.257z M36.382,376.124h76.913v63.163H93.992c-0.021,0-0.038-0.003-0.059-0.003c-0.021,0-0.038,0.003-0.059,0.003
			H36.382V376.124z M575.619,552.921c0,12.515-10.182,22.697-22.697,22.697H59.08c-12.515,0-22.697-10.182-22.697-22.697v-77.253
			h39.36v42.399c0,10.046,8.145,18.191,18.191,18.191h424.136c10.046,0,18.191-8.145,18.191-18.191V93.934
			c0-10.047-8.145-18.191-18.191-18.191H93.933c-10.046,0-18.191,8.143-18.191,18.191v42.399h-39.36V59.079
			c0-12.515,10.182-22.697,22.697-22.697h493.842c12.515,0,22.697,10.182,22.697,22.697V552.921z"/>
		<path d="M170.434,456.31c3.552,3.552,8.207,5.328,12.862,5.328c4.654,0,9.312-1.777,12.862-5.328l50.553-50.552
			c20.631,15.338,46.171,24.43,73.798,24.43c27.747,0,53.394-9.165,74.073-24.624l50.746,50.746
			c3.552,3.552,8.207,5.328,12.862,5.328c4.655,0,9.312-1.777,12.862-5.328c7.105-7.103,7.105-18.621,0-25.726l-50.823-50.823
			c15.22-20.586,24.239-46.019,24.239-73.528c0-27.629-9.092-53.168-24.433-73.803l51.017-51.016c7.105-7.105,7.105-18.621,0-25.726
			c-7.103-7.103-18.62-7.103-25.726,0l-51.017,51.016c-20.633-15.339-46.173-24.43-73.801-24.43
			c-27.507,0-52.941,9.018-73.525,24.236l-50.825-50.822c-7.105-7.105-18.621-7.103-25.726,0c-7.105,7.105-7.105,18.621,0,25.726
			l50.746,50.744c-15.459,20.68-24.624,46.327-24.624,74.074c0,27.627,9.092,53.167,24.432,73.801l-50.553,50.552
			C163.329,437.689,163.329,449.207,170.434,456.31z M320.51,218.657c48.29,0,87.578,39.286,87.578,87.576
			c0,48.289-39.287,87.576-87.578,87.576c-48.289,0-87.575-39.286-87.575-87.576S272.221,218.657,320.51,218.657z"/>
	</g>
</g>
<g>
</g>
<g>
</g>
<g>
</g>
<g>
</g>
<g>
</g>
<g>
</g>
<g>
</g>
<g>
</g>
<g>
</g>
<g>
</g>
<g>
</g>
<g>
</g>
<g>
</g>
<g>
</g>
<g>
</g>
</svg>
