<?xml version="1.0" encoding="iso-8859-1"?>
<!-- Generator: Adobe Illustrator 18.1.1, SVG Export Plug-In . SVG Version: 6.00 Build 0)  -->
<svg version="1.1" id="Capa_1" xmlns="http://www.w3.org/2000/svg" xmlns:xlink="http://www.w3.org/1999/xlink" x="0px" y="0px"
	 viewBox="0 0 612 612" style="enable-background:new 0 0 612 612;" xml:space="preserve">
<g>
	<g>
		<g>
			<path d="M553.832,0H58.168C26.095,0,0,26.095,0,58.169v495.661C0,585.905,26.095,612,58.168,612h495.664
				C585.905,612,612,585.905,612,553.831V58.169C612,26.095,585.905,0,553.832,0z M35.198,58.169
				c0-12.667,10.306-22.971,22.97-22.971h495.664c12.664,0,22.97,10.304,22.97,22.971v79.696H35.198V58.169z M120.435,576.802
				H58.168c-12.664,0-22.97-10.304-22.97-22.971V173.063h85.237V576.802z M576.802,553.831c0,12.667-10.306,22.971-22.97,22.971
				H155.633V173.063h421.169V553.831L576.802,553.831z"/>
			<path d="M215.66,267.105h283.492c9.721,0,17.599-7.879,17.599-17.599c0-9.721-7.879-17.599-17.599-17.599H215.66
				c-9.719,0-17.599,7.879-17.599,17.599C198.061,259.227,205.941,267.105,215.66,267.105z"/>
			<path d="M215.66,351.607h283.492c9.721,0,17.599-7.88,17.599-17.599c0-9.721-7.879-17.599-17.599-17.599H215.66
				c-9.719,0-17.599,7.879-17.599,17.599C198.061,343.727,205.941,351.607,215.66,351.607z"/>
			<path d="M215.66,436.109h283.492c9.721,0,17.599-7.879,17.599-17.599c0-9.721-7.879-17.599-17.599-17.599H215.66
				c-9.719,0-17.599,7.879-17.599,17.599C198.061,428.231,205.941,436.109,215.66,436.109z"/>
			<path d="M215.66,520.611h158.103c9.722,0,17.599-7.88,17.599-17.599c0-9.721-7.877-17.599-17.599-17.599H215.66
				c-9.719,0-17.599,7.879-17.599,17.599C198.061,512.731,205.941,520.611,215.66,520.611z"/>
		</g>
	</g>
</g>
<g>
</g>
<g>
</g>
<g>
</g>
<g>
</g>
<g>
</g>
<g>
</g>
<g>
</g>
<g>
</g>
<g>
</g>
<g>
</g>
<g>
</g>
<g>
</g>
<g>
</g>
<g>
</g>
<g>
</g>
</svg>
