<?xml version="1.0" encoding="iso-8859-1"?>
<!-- Generator: Adobe Illustrator 18.1.1, SVG Export Plug-In . SVG Version: 6.00 Build 0)  -->
<svg version="1.1" id="Capa_1" xmlns="http://www.w3.org/2000/svg" xmlns:xlink="http://www.w3.org/1999/xlink" x="0px" y="0px"
	 viewBox="0 0 612 612" style="enable-background:new 0 0 612 612;" xml:space="preserve">
<g>
	<g>
		<g>
			<path d="M610.518,566.747l-42.889-92.922V231.34c0-17.003-13.83-30.832-30.831-30.832h-31.657V53.621
				c0-17.21-14.003-31.213-31.213-31.213H76.723c-17.21,0-31.212,14.003-31.212,31.213v248.827L1.483,397.846
				c-2.958,6.409-1.397,13.998,3.85,18.716c3.033,2.727,6.888,4.129,10.77,4.129c2.836,0,5.69-0.75,8.248-2.277l94.379-56.346
				V483.53c0,17,13.83,30.829,30.831,30.829h315.88l122.206,72.958c2.558,1.528,5.411,2.274,8.248,2.274
				c3.884,0,7.737-1.402,10.769-4.129C611.914,580.744,613.475,573.156,610.518,566.747z M478.135,484.44
				c-2.494-1.488-5.345-2.277-8.251-2.277H150.929V343.517H473.93c17.21,0,31.213-14.003,31.213-31.213v-79.601h30.29v244.658
				c0,2.329,0.506,4.63,1.482,6.747l22.565,48.893L478.135,484.44z M52.52,364.1l23.708-51.37c0.977-2.114,1.482-4.418,1.482-6.747
				V54.607h395.234V311.32H145.359c-2.906,0-5.757,0.786-8.249,2.277L52.52,364.1z"/>
			<path d="M129.715,145.881h296.281c8.892,0,16.099-7.208,16.099-16.099s-7.207-16.099-16.099-16.099H129.715
				c-8.891,0-16.099,7.208-16.099,16.099S120.824,145.881,129.715,145.881z"/>
			<path d="M342.312,217.89c0-8.893-7.208-16.099-16.099-16.099H129.715c-8.891,0-16.099,7.206-16.099,16.099
				c0,8.891,7.208,16.099,16.099,16.099h196.498C335.104,233.989,342.312,226.781,342.312,217.89z"/>
			<path d="M393.758,387.541H197.26c-8.891,0-16.099,7.208-16.099,16.099c0,8.891,7.208,16.099,16.099,16.099h196.498
				c8.891,0,16.099-7.208,16.099-16.099C409.857,394.749,402.649,387.541,393.758,387.541z"/>
		</g>
	</g>
</g>
<g>
</g>
<g>
</g>
<g>
</g>
<g>
</g>
<g>
</g>
<g>
</g>
<g>
</g>
<g>
</g>
<g>
</g>
<g>
</g>
<g>
</g>
<g>
</g>
<g>
</g>
<g>
</g>
<g>
</g>
</svg>
