<?xml version="1.0" encoding="iso-8859-1"?>
<!-- Generator: Adobe Illustrator 18.1.1, SVG Export Plug-In . SVG Version: 6.00 Build 0)  -->
<svg version="1.1" id="Capa_1" xmlns="http://www.w3.org/2000/svg" xmlns:xlink="http://www.w3.org/1999/xlink" x="0px" y="0px"
	 viewBox="0 0 612 612" style="enable-background:new 0 0 612 612;" xml:space="preserve">
<g>
	<g>
		<g>
			<path d="M340.238,109.421c-30.833-30.834-71.827-47.816-115.432-47.816s-84.601,16.981-115.432,47.816
				c-30.833,30.833-47.814,71.83-47.814,115.432c0,43.607,16.981,84.602,47.814,115.435s71.827,47.817,115.432,47.817
				s84.601-16.984,115.432-47.817C403.891,276.638,403.891,173.072,340.238,109.421z M315.72,315.771
				c-24.284,24.287-56.572,37.662-90.916,37.662s-66.632-13.377-90.916-37.662c-24.284-24.286-37.658-56.572-37.658-90.917
				c0-34.342,13.375-66.632,37.658-90.917c24.284-24.286,56.572-37.658,90.916-37.658s66.632,13.374,90.916,37.658
				C365.853,184.069,365.853,265.641,315.72,315.771z"/>
			<path d="M595.834,509.738c-0.293-0.341-0.598-0.673-0.92-0.994L421.054,334.656c47.853-85.611,35.44-196.102-37.252-268.797
				C341.333,23.39,284.865,0,224.803,0C164.742,0,108.277,23.387,65.808,65.856c-87.671,87.672-87.671,230.326,0,317.997
				c42.469,42.469,98.934,65.86,158.998,65.86c39.027,0,76.534-9.885,109.668-28.455l174.229,173.714
				c0.331,0.329,0.672,0.641,1.021,0.939c11.6,10.74,26.496,16.09,41.388,16.09c15.661-0.001,31.318-5.923,43.116-17.722
				C617.25,571.258,617.889,533.544,595.834,509.738z M569.71,569.762c-10.028,10.031-26.518,10.21-36.758,0.399
				c-0.127-0.123-0.254-0.241-0.387-0.36L405.707,443.315l38.895-36.015l125.187,125.353c0.104,0.114,0.211,0.228,0.319,0.341
				C579.916,543.242,579.738,559.733,569.71,569.762z M224.806,415.04c-50.799,0-98.56-19.782-134.48-55.704
				c-74.151-74.154-74.151-194.811,0-268.962c35.92-35.92,83.678-55.701,134.477-55.701c50.802,0,98.563,19.782,134.482,55.705
				c74.151,74.15,74.151,194.806,0,268.959C323.364,395.257,275.605,415.04,224.806,415.04z M383.802,383.853
				c6.329-6.328,12.185-12.95,17.599-19.81l18.683,18.708l-38.951,36.066l-17.277-17.228
				C370.792,396.11,377.457,390.199,383.802,383.853z"/>
			<path d="M276.586,206.8h-36.603v-36.602c0-9.576-7.76-17.337-17.337-17.337c-9.574,0-17.337,7.761-17.337,17.337V206.8h-36.603
				c-9.574,0-17.337,7.762-17.337,17.337c0,9.574,7.762,17.337,17.337,17.337h36.603v36.603c0,9.576,7.762,17.337,17.337,17.337
				c9.577,0,17.337-7.761,17.337-17.337v-36.603h36.603c9.574,0,17.337-7.762,17.337-17.337
				C293.922,214.563,286.16,206.8,276.586,206.8z"/>
		</g>
	</g>
</g>
<g>
</g>
<g>
</g>
<g>
</g>
<g>
</g>
<g>
</g>
<g>
</g>
<g>
</g>
<g>
</g>
<g>
</g>
<g>
</g>
<g>
</g>
<g>
</g>
<g>
</g>
<g>
</g>
<g>
</g>
</svg>
