<?xml version="1.0" encoding="iso-8859-1"?>
<!-- Generator: Adobe Illustrator 18.1.1, SVG Export Plug-In . SVG Version: 6.00 Build 0)  -->
<svg version="1.1" id="Capa_1" xmlns="http://www.w3.org/2000/svg" xmlns:xlink="http://www.w3.org/1999/xlink" x="0px" y="0px"
	 viewBox="0 0 612 612" style="enable-background:new 0 0 612 612;" xml:space="preserve">
<g>
	<g>
		<g>
			<path d="M228.27,432.748c21.085,17.227,48.69,26.715,77.729,26.715c29.04,0,56.645-9.488,77.728-26.715
				c21.577-17.631,33.951-41.952,33.951-66.73V93.445c0-24.778-12.376-49.101-33.953-66.73C362.644,9.488,335.038,0,305.998,0
				c-29.041,0-56.646,9.488-77.728,26.715c-21.577,17.631-33.951,41.952-33.951,66.73v272.572
				C194.317,390.794,206.694,415.116,228.27,432.748z M306.001,426.09c-40.445,0-74.886-24.98-78.046-55.503h156.09
				C380.882,401.11,346.443,426.09,306.001,426.09z M227.69,296.139h48.669c9.215,0,16.686-7.471,16.686-16.686
				s-7.471-16.686-16.686-16.686H227.69v-41.599h48.669c9.215,0,16.686-7.471,16.686-16.686c0-9.216-7.471-16.686-16.686-16.686
				H227.69v-41.601h48.669c9.215,0,16.686-7.471,16.686-16.686s-7.471-16.686-16.686-16.686H227.69V93.445
				c0-32.562,35.86-60.072,78.306-60.072c42.447,0,78.309,27.51,78.309,60.072v19.376h-48.669c-9.215,0-16.686,7.471-16.686,16.686
				s7.471,16.686,16.686,16.686h48.669v41.601h-48.669c-9.215,0-16.686,7.47-16.686,16.686c0,9.215,7.471,16.686,16.686,16.686
				h48.669v41.599h-48.669c-9.215,0-16.686,7.471-16.686,16.686s7.471,16.686,16.686,16.686h48.669v41.075H227.69V296.139z"/>
			<path d="M456.686,222.642c-9.215,0-16.686,7.47-16.686,16.686v144.468c0,24.594-13.013,48.588-36.643,67.56
				c-25.039,20.104-58.587,31.875-94.464,33.145c-0.463,0.017-5.319,0.017-5.783,0c-35.879-1.27-69.427-13.039-94.466-33.145
				c-23.629-18.974-36.643-42.966-36.643-67.56V239.329c0-9.216-7.47-16.686-16.686-16.686c-9.215,0-16.686,7.47-16.686,16.686
				v144.468c0,34.913,17.447,68.15,49.122,93.584c14.414,11.573,31.048,20.855,49.089,27.627c-2.958,1.979-5.821,4.085-8.567,6.331
				c-21.577,17.631-33.951,41.952-33.951,66.729v17.245c0,9.215,7.471,16.686,16.686,16.686h189.99
				c9.215,0,16.686-7.471,16.686-16.686v-17.245c0-24.778-12.376-49.1-33.953-66.729c-2.746-2.244-5.611-4.351-8.57-6.33
				c18.044-6.772,34.678-16.055,49.093-27.628c31.678-25.434,49.122-58.669,49.122-93.584V239.329
				C473.372,230.112,465.902,222.642,456.686,222.642z M384.307,578.627H227.69v-0.559c0-32.562,35.86-60.071,78.306-60.071
				c42.447,0,78.309,27.509,78.309,60.071v0.559H384.307z"/>
		</g>
	</g>
</g>
<g>
</g>
<g>
</g>
<g>
</g>
<g>
</g>
<g>
</g>
<g>
</g>
<g>
</g>
<g>
</g>
<g>
</g>
<g>
</g>
<g>
</g>
<g>
</g>
<g>
</g>
<g>
</g>
<g>
</g>
</svg>
