<?xml version="1.0" encoding="iso-8859-1"?>
<!-- Generator: Adobe Illustrator 18.1.1, SVG Export Plug-In . SVG Version: 6.00 Build 0)  -->
<svg version="1.1" id="Capa_1" xmlns="http://www.w3.org/2000/svg" xmlns:xlink="http://www.w3.org/1999/xlink" x="0px" y="0px"
	 viewBox="0 0 612 612" style="enable-background:new 0 0 612 612;" xml:space="preserve">
<g>
	<g>
		<path d="M268.927,237.759c-36.614,0-71.036,14.258-96.924,40.147c-25.891,25.889-40.151,60.312-40.151,96.925
			c0,36.612,14.261,71.033,40.151,96.922c25.888,25.894,60.31,40.151,96.924,40.151c36.612,0,71.033-14.258,96.924-40.148
			c53.445-53.445,53.445-140.407,0-193.851C339.96,252.016,305.537,237.759,268.927,237.759z M339.94,445.844
			c-18.969,18.969-44.188,29.416-71.013,29.416c-26.827,0-52.047-10.447-71.013-29.416c-18.969-18.969-29.419-44.188-29.419-71.013
			c0-26.827,10.45-52.047,29.419-71.016c18.966-18.966,44.185-29.413,71.013-29.413c26.824,0,52.044,10.447,71.013,29.415
			C379.097,342.973,379.097,406.685,339.94,445.844z"/>
		<path d="M312.823,356.506h-25.578v-25.573c0-10.12-8.201-18.322-18.322-18.322c-10.118,0-18.322,8.202-18.322,18.322v25.573
			h-25.578c-10.118,0-18.322,8.204-18.322,18.322c0,10.118,8.204,18.322,18.322,18.322h25.578v25.578
			c0,10.118,8.204,18.322,18.322,18.322c10.121,0,18.322-8.204,18.322-18.322V393.15h25.578c10.121,0,18.322-8.204,18.322-18.322
			C331.145,364.709,322.945,356.506,312.823,356.506z"/>
		<path d="M547.87,90.023H388.865c-4.852-30.589-31.407-54.049-63.339-54.049H138.28c-35.359,0-64.127,28.769-64.127,64.129v15.468
			H64.13C28.769,115.572,0,144.339,0,179.699v378.004c0,10.121,8.204,18.322,18.322,18.322h501.203
			c10.121,0,18.322-8.201,18.322-18.322V496.43h55.83c10.121,0,18.322-8.204,18.322-18.322V154.154
			C612,118.792,583.231,90.023,547.87,90.023z M314.711,169.622c-4.849-30.59-31.404-54.05-63.339-54.05H110.797v-15.468
			c0-15.155,12.331-27.485,27.483-27.485h187.244c15.158,0,27.486,12.329,27.486,27.485v8.242c0,10.12,8.204,18.322,18.322,18.322
			H547.87c15.159,0,27.486,12.329,27.486,27.486v305.632h-37.508V233.752c0-35.362-28.769-64.13-64.13-64.13L314.711,169.622
			L314.711,169.622z M501.203,539.381H36.644V179.698c0-15.154,12.331-27.483,27.486-27.483h187.241
			c15.158,0,27.486,12.329,27.486,27.483v8.245c0,10.12,8.204,18.322,18.322,18.322h176.538c15.158,0,27.486,12.329,27.486,27.486
			L501.203,539.381L501.203,539.381z"/>
	</g>
</g>
<g>
</g>
<g>
</g>
<g>
</g>
<g>
</g>
<g>
</g>
<g>
</g>
<g>
</g>
<g>
</g>
<g>
</g>
<g>
</g>
<g>
</g>
<g>
</g>
<g>
</g>
<g>
</g>
<g>
</g>
</svg>
