<?xml version="1.0" encoding="iso-8859-1"?>
<!-- Generator: Adobe Illustrator 18.1.1, SVG Export Plug-In . SVG Version: 6.00 Build 0)  -->
<svg version="1.1" id="Capa_1" xmlns="http://www.w3.org/2000/svg" xmlns:xlink="http://www.w3.org/1999/xlink" x="0px" y="0px"
	 viewBox="0 0 159.809 159.809" style="enable-background:new 0 0 159.809 159.809;" xml:space="preserve">
<g>
	<g>
		<g>
			<path d="M154.742,75.159h-8.961c-0.408-5.354-1.458-10.531-3.072-15.456l8.276-3.427c2.587-1.072,3.815-4.038,2.744-6.624
				c-1.071-2.587-4.037-3.816-6.624-2.744l-8.291,3.434c-2.401-4.715-5.354-9.102-8.77-13.081l6.363-6.364
				c1.98-1.981,1.98-5.19,0-7.17c-1.98-1.981-5.19-1.981-7.17,0l-6.364,6.364c-3.98-3.414-8.368-6.367-13.081-8.768l3.435-8.293
				c1.071-2.587-0.157-5.552-2.744-6.624c-2.587-1.072-5.552,0.157-6.624,2.744l-3.432,8.286c-4.927-1.614-10.105-2.67-15.462-3.078
				c0.002-0.059,0.009-0.116,0.009-0.175v-8.79c0-2.8-2.27-5.07-5.07-5.07c-2.8,0-5.07,2.27-5.07,5.07v8.79
				c0,0.059,0.007,0.114,0.009,0.172c-5.361,0.409-10.544,1.459-15.473,3.076c-0.021-0.056-0.037-0.112-0.06-0.167L55.951,9.15
				c-1.071-2.587-4.038-3.815-6.623-2.744c-2.587,1.071-3.815,4.037-2.744,6.624l3.36,8.114c0.025,0.06,0.055,0.118,0.082,0.177
				c-4.715,2.403-9.105,5.356-13.085,8.773l-6.367-6.367c-1.98-1.98-5.19-1.98-7.17,0c-1.98,1.98-1.98,5.19,0,7.169l6.362,6.362
				c-3.415,3.98-6.367,8.369-8.769,13.083l-8.291-3.434c-2.587-1.071-5.553,0.158-6.624,2.744c-1.071,2.587,0.157,5.552,2.744,6.623
				l8.276,3.428c-1.613,4.924-2.664,10.102-3.072,15.456H5.07c-2.8,0-5.07,2.27-5.07,5.07c0,2.8,2.27,5.07,5.07,5.07h8.961
				c0.409,5.355,1.46,10.532,3.075,15.456l-8.279,3.428c-2.587,1.072-3.815,4.038-2.744,6.624c0.809,1.952,2.696,3.13,4.686,3.13
				c0.646,0,1.303-0.124,1.937-0.387l8.296-3.436c2.403,4.712,5.353,9.101,8.768,13.08l-6.366,6.366c-1.98,1.981-1.98,5.19,0,7.17
				c0.99,0.99,2.287,1.485,3.584,1.485c1.298,0,2.595-0.495,3.585-1.485l6.367-6.367c3.98,3.415,8.364,6.372,13.077,8.773
				l-3.435,8.293c-1.071,2.587,0.157,5.552,2.744,6.623c0.635,0.263,1.291,0.387,1.938,0.387c1.989,0,3.877-1.178,4.686-3.13
				l3.43-8.281c4.924,1.613,10.1,2.666,15.455,3.074v8.314c0,2.8,2.27,5.07,5.07,5.07c2.8,0,5.07-2.27,5.07-5.07v-8.314
				c5.354-0.409,10.532-1.457,15.456-3.073l3.43,8.28c0.809,1.952,2.696,3.13,4.686,3.13c0.646,0,1.304-0.125,1.938-0.387
				c2.587-1.072,3.815-4.038,2.744-6.624l-3.436-8.294c4.712-2.403,9.1-5.354,13.079-8.77l6.367,6.367
				c0.99,0.99,2.287,1.485,3.585,1.485c1.297,0,2.595-0.495,3.585-1.485c1.98-1.98,1.98-5.189,0-7.17l-6.361-6.362
				c3.414-3.979,6.366-8.368,8.768-13.082l8.291,3.435c0.635,0.262,1.291,0.387,1.938,0.387c1.989,0,3.877-1.178,4.686-3.13
				c1.071-2.587-0.157-5.552-2.744-6.624l-8.277-3.428c1.613-4.925,2.664-10.103,3.072-15.457h8.961c2.8,0,5.07-2.27,5.07-5.07
				C159.812,77.429,157.542,75.159,154.742,75.159z M79.907,136.157c-30.838,0-55.928-25.089-55.928-55.928
				s25.089-55.928,55.928-55.928s55.928,25.089,55.928,55.928S110.746,136.157,79.907,136.157z"/>
			<path d="M79.907,38.4c-23.065,0-41.829,18.764-41.829,41.829c0,23.064,18.765,41.829,41.829,41.829s41.829-18.764,41.829-41.829
				C121.736,57.165,102.971,38.4,79.907,38.4z M79.907,111.919c-17.474,0-31.69-14.216-31.69-31.689
				c0-17.474,14.216-31.69,31.69-31.69c17.473,0,31.69,14.216,31.69,31.69C111.597,97.703,97.381,111.919,79.907,111.919z"/>
			<path d="M79.907,53.568c-14.701,0-26.661,11.96-26.661,26.662c0,14.701,11.96,26.661,26.661,26.661
				c14.701,0,26.662-11.96,26.662-26.661C106.568,65.528,94.608,53.568,79.907,53.568z M79.907,96.751
				c-9.111,0-16.522-7.411-16.522-16.521c0-9.111,7.412-16.522,16.522-16.522s16.522,7.411,16.522,16.522
				C96.429,89.34,89.017,96.751,79.907,96.751z"/>
		</g>
	</g>
</g>
<g>
</g>
<g>
</g>
<g>
</g>
<g>
</g>
<g>
</g>
<g>
</g>
<g>
</g>
<g>
</g>
<g>
</g>
<g>
</g>
<g>
</g>
<g>
</g>
<g>
</g>
<g>
</g>
<g>
</g>
</svg>
