<?xml version="1.0" encoding="iso-8859-1"?>
<!-- Generator: Adobe Illustrator 18.1.1, SVG Export Plug-In . SVG Version: 6.00 Build 0)  -->
<svg version="1.1" id="Capa_1" xmlns="http://www.w3.org/2000/svg" xmlns:xlink="http://www.w3.org/1999/xlink" x="0px" y="0px"
	 viewBox="0 0 612 612" style="enable-background:new 0 0 612 612;" xml:space="preserve">
<g>
	<g>
		<g>
			<path d="M594.736,122.032H17.264C7.727,122.032,0,129.761,0,139.296v333.408c0,9.534,7.727,17.264,17.264,17.264h577.472
				c9.534,0,17.264-7.73,17.264-17.264V139.296C612,129.761,604.27,122.032,594.736,122.032z M34.528,455.44v-50.163
				c24.528,6.284,43.877,25.633,50.16,50.163L34.528,455.44L34.528,455.44z M84.691,156.56
				c-6.286,24.528-25.634,43.876-50.163,50.16v-50.16L84.691,156.56L84.691,156.56z M577.472,455.44h-50.16
				c6.283-24.53,25.632-43.878,50.16-50.163V455.44z M577.472,370.036c-43.605,7.311-78.09,41.799-85.402,85.403H119.93
				c-7.311-43.605-41.797-78.093-85.402-85.403V241.959c43.605-7.309,78.093-41.795,85.402-85.399h372.135
				c7.311,43.604,41.801,78.09,85.405,85.399v128.077H577.472z M577.472,206.72c-24.531-6.284-43.88-25.632-50.163-50.16h50.163
				V206.72z"/>
			<path d="M305.998,201.877c-57.412,0-104.122,46.71-104.122,104.123c0,57.412,46.71,104.122,104.122,104.122
				s104.122-46.71,104.122-104.122C410.12,248.587,363.411,201.877,305.998,201.877z M236.404,306.001
				c0-38.375,31.221-69.595,69.593-69.595c38.375,0,69.593,31.219,69.593,69.595c0,38.374-31.218,69.593-69.593,69.593
				C267.625,375.594,236.404,344.375,236.404,306.001z"/>
		</g>
	</g>
</g>
<g>
</g>
<g>
</g>
<g>
</g>
<g>
</g>
<g>
</g>
<g>
</g>
<g>
</g>
<g>
</g>
<g>
</g>
<g>
</g>
<g>
</g>
<g>
</g>
<g>
</g>
<g>
</g>
<g>
</g>
</svg>
