<?xml version="1.0" encoding="iso-8859-1"?>
<!-- Generator: Adobe Illustrator 18.1.1, SVG Export Plug-In . SVG Version: 6.00 Build 0)  -->
<svg version="1.1" id="Capa_1" xmlns="http://www.w3.org/2000/svg" xmlns:xlink="http://www.w3.org/1999/xlink" x="0px" y="0px"
	 viewBox="0 0 612.003 612.003" style="enable-background:new 0 0 612.003 612.003;" xml:space="preserve">
<g>
	<g>
		<g>
			<path d="M533.084,492.243V19.173c0-0.252-0.006-0.426-0.017-0.562c0.165-7.239-4.016-14.183-11.091-17.173
				c-9.25-3.907-19.917,0.42-23.827,9.67c-2.631,6.224-64.4,153.618-62.963,258.428c0.605,44.146,11.957,73.054,33.74,85.927
				c8.849,5.227,17.855,6.977,25.943,6.977c0.624,0,1.234-0.027,1.847-0.044v129.848c-24.926,7.764-43.072,31.051-43.072,58.502
				c0,33.777,27.479,61.257,61.257,61.257s61.257-27.479,61.257-61.257C576.154,523.294,558.008,500.006,533.084,492.243z
				 M496.714,124.99v200.934c-3.122,0.258-6.513-0.089-9.418-1.853c-4.545-2.758-15.176-13.645-15.742-55.031
				C470.947,224.94,483.149,170.947,496.714,124.99z M514.899,575.63c-13.722,0-24.886-11.164-24.886-24.886
				s11.164-24.886,24.886-24.886s24.886,11.164,24.886,24.886C539.784,564.465,528.621,575.63,514.899,575.63z"/>
			<path d="M178.064,216.978c22.06-21.953,22.428-52.131,22.345-56.826V30.918c0-10.043-8.142-18.185-18.185-18.185
				c-10.044,0-18.185,8.142-18.185,18.185v129.427c0,0.165-0.002,0.192,0.003,0.358c0.003,0.189,0.08,19.023-11.808,30.666
				c-4.122,4.04-9.447,6.891-15.918,8.546V18.188c0-10.043-8.141-18.185-18.185-18.185c-10.043,0-18.185,8.142-18.185,18.185
				v181.728c-6.471-1.655-11.796-4.505-15.918-8.546c-11.889-11.645-11.808-30.477-11.81-30.528
				c0.005-0.165,0.006-0.332,0.006-0.497V30.918c0-10.043-8.142-18.185-18.185-18.185c-10.044,0-18.185,8.142-18.185,18.185v129.232
				c-0.083,4.695,0.282,34.876,22.345,56.829c10.941,10.89,24.941,17.558,41.747,19.973v255.291
				c-24.926,7.764-43.072,31.051-43.072,58.502c0,33.777,27.479,61.257,61.257,61.257s61.257-27.479,61.257-61.257
				c0-27.449-18.146-50.737-43.072-58.502V236.951C153.121,234.536,167.124,227.865,178.064,216.978z M143.016,550.745
				c0,13.722-11.164,24.886-24.886,24.886s-24.886-11.164-24.886-24.886s11.164-24.886,24.886-24.886
				S143.016,537.022,143.016,550.745z"/>
			<path d="M410.549,138.063c0-77.417-38.043-138.062-86.61-138.062c-48.568,0-86.613,60.645-86.613,138.062
				c0,67.446,28.877,122.156,68.428,135.131v219.048c-24.926,7.764-43.073,31.051-43.073,58.502
				c0,33.777,27.479,61.257,61.257,61.257s61.255-27.479,61.255-61.257c0-27.449-18.146-50.737-43.07-58.502V273.195
				C381.674,260.219,410.549,205.509,410.549,138.063z M273.695,138.063c0-59.928,26.479-101.692,50.243-101.692
				c23.763,0,50.24,41.764,50.24,101.692c0,59.931-26.478,101.693-50.24,101.693C300.174,239.758,273.695,197.994,273.695,138.063z
				 M348.824,550.745c0,13.722-11.164,24.886-24.885,24.886c-13.722,0-24.886-11.164-24.886-24.886s11.164-24.886,24.886-24.886
				C337.66,525.858,348.824,537.022,348.824,550.745z"/>
		</g>
	</g>
</g>
<g>
</g>
<g>
</g>
<g>
</g>
<g>
</g>
<g>
</g>
<g>
</g>
<g>
</g>
<g>
</g>
<g>
</g>
<g>
</g>
<g>
</g>
<g>
</g>
<g>
</g>
<g>
</g>
<g>
</g>
</svg>
