<?xml version="1.0" encoding="iso-8859-1"?>
<!-- Generator: Adobe Illustrator 18.1.1, SVG Export Plug-In . SVG Version: 6.00 Build 0)  -->
<svg version="1.1" id="Capa_1" xmlns="http://www.w3.org/2000/svg" xmlns:xlink="http://www.w3.org/1999/xlink" x="0px" y="0px"
	 viewBox="0 0 612 612" style="enable-background:new 0 0 612 612;" xml:space="preserve">
<g>
	<g>
		<g>
			<path d="M303.917,306.01l135.455-131.135c3.525-3.413,5.502-8.121,5.466-13.031c-0.036-4.909-2.081-9.588-5.656-12.948
				L285.996,4.875c-3.588-3.375-8.198-4.982-12.76-4.866c-0.067,0-0.132-0.009-0.201-0.009c-9.915,0-17.955,8.039-17.955,17.955
				v240.788l-101.488-98.235c-7.123-6.893-18.492-6.709-25.388,0.414c-6.896,7.125-6.712,18.492,0.413,25.389l123.666,119.703
				L127.241,427.07c-7.125,6.896-7.309,18.261-0.411,25.386c3.522,3.639,8.208,5.467,12.902,5.467c4.498,0,9.001-1.68,12.487-5.056
				l102.863-99.58v240.758c0,9.915,8.039,17.955,17.955,17.955c0.111,0,0.218-0.015,0.329-0.018
				c0.112,0.003,0.224,0.018,0.337,0.018c4.409,0,8.829-1.616,12.296-4.875l153.185-144.022c3.577-3.361,5.62-8.042,5.656-12.948
				c0.034-4.909-1.941-9.621-5.467-13.034L303.917,306.01z M290.991,268.543V58.855l109.882,103.312L290.991,268.543z
				 M290.991,553.142V343.475l109.88,106.36L290.991,553.142z"/>
			<path d="M415.278,306.005l69.481-67.262c7.125-6.896,7.309-18.264,0.411-25.389c-6.898-7.125-18.264-7.309-25.389-0.408
				l-82.805,80.163c-3.494,3.381-5.466,8.036-5.466,12.899s1.972,9.517,5.467,12.902l82.806,80.149
				c3.486,3.372,7.988,5.053,12.486,5.053c4.694,0,9.381-1.83,12.902-5.467c6.896-7.125,6.71-18.492-0.413-25.389L415.278,306.005z"
				/>
		</g>
	</g>
</g>
<g>
</g>
<g>
</g>
<g>
</g>
<g>
</g>
<g>
</g>
<g>
</g>
<g>
</g>
<g>
</g>
<g>
</g>
<g>
</g>
<g>
</g>
<g>
</g>
<g>
</g>
<g>
</g>
<g>
</g>
</svg>
