<?xml version="1.0" encoding="iso-8859-1"?>
<!-- Generator: Adobe Illustrator 18.1.1, SVG Export Plug-In . SVG Version: 6.00 Build 0)  -->
<svg version="1.1" id="Capa_1" xmlns="http://www.w3.org/2000/svg" xmlns:xlink="http://www.w3.org/1999/xlink" x="0px" y="0px"
	 viewBox="0 0 612 612" style="enable-background:new 0 0 612 612;" xml:space="preserve">
<g>
	<g>
		<path d="M611.971,486.744c0.106-3.12-0.601-6.265-2.165-9.094l-58.191-105.351c0.128-0.853,0.214-1.721,0.214-2.607V64.779
			c0-9.712-7.875-17.587-17.587-17.587H77.758c-9.712,0-17.587,7.875-17.587,17.587v304.913c0,0.887,0.088,1.754,0.214,2.607
			L2.193,477.65c-1.524,2.757-2.245,5.82-2.182,8.865c0,0.034-0.01,0.059-0.01,0.091v60.615c0,9.712,7.873,17.587,17.587,17.587
			h576.826c9.712,0,17.587-7.875,17.587-17.587v-60.237C612,486.898,611.977,486.826,611.971,486.744z M47.393,468.563
			l44.901-81.286h427.416l44.898,81.286H47.393z M95.345,82.366h421.313v269.739H95.345V82.366z M576.826,529.634H35.174v-25.897
			h541.652V529.634z"/>
		<path d="M457.632,102.789H133.355c-9.712,0-17.587,7.875-17.587,17.587v193.271c0,9.712,7.875,17.587,17.587,17.587
			c9.712,0,17.587-7.875,17.587-17.587V137.963h306.69c9.714,0,17.587-7.875,17.587-17.587S467.345,102.789,457.632,102.789z"/>
		<path d="M319.893,410.336H132.02c-9.714,0-17.587,7.875-17.587,17.587c0,9.712,7.873,17.587,17.587,17.587h187.873
			c9.714,0,17.587-7.875,17.587-17.587C337.48,418.21,329.605,410.336,319.893,410.336z"/>
		<path d="M391.375,410.344c-4.631,0-9.16,1.874-12.443,5.144c-3.268,3.268-5.144,7.797-5.144,12.428
			c0,4.628,1.874,9.175,5.144,12.44c3.283,3.268,7.812,5.16,12.443,5.16c4.63,0,9.16-1.892,12.427-5.16
			c3.281-3.267,5.16-7.812,5.16-12.44c0-4.631-1.877-9.16-5.16-12.428C400.535,412.219,396.005,410.344,391.375,410.344z"/>
		<path d="M460.974,410.344c-4.631,0-9.175,1.874-12.441,5.144c-3.268,3.268-5.146,7.797-5.146,12.428
			c0,4.628,1.876,9.175,5.146,12.44c3.281,3.268,7.81,5.16,12.441,5.16c4.615,0,9.16-1.892,12.427-5.16
			c3.283-3.267,5.16-7.812,5.16-12.44c0-4.617-1.876-9.16-5.16-12.428C470.134,412.219,465.606,410.344,460.974,410.344z"/>
	</g>
</g>
<g>
</g>
<g>
</g>
<g>
</g>
<g>
</g>
<g>
</g>
<g>
</g>
<g>
</g>
<g>
</g>
<g>
</g>
<g>
</g>
<g>
</g>
<g>
</g>
<g>
</g>
<g>
</g>
<g>
</g>
</svg>
