<?xml version="1.0" encoding="iso-8859-1"?>
<!-- Generator: Adobe Illustrator 18.1.1, SVG Export Plug-In . SVG Version: 6.00 Build 0)  -->
<svg version="1.1" id="Capa_1" xmlns="http://www.w3.org/2000/svg" xmlns:xlink="http://www.w3.org/1999/xlink" x="0px" y="0px"
	 viewBox="0 0 611.998 611.998" style="enable-background:new 0 0 611.998 611.998;" xml:space="preserve">
<g>
	<g>
		<path d="M553.352,0H58.648c-9.991,0-18.092,8.101-18.092,18.092v542.531c0,28.328,23.047,51.376,51.374,51.376h428.138
			c28.327,0,51.374-23.047,51.374-51.376V18.092C571.444,8.101,563.343,0,553.352,0z M76.739,36.183h458.521v30.382H76.739V36.183z
			 M535.261,186.885H76.739v-84.137h458.521V186.885z M535.261,223.068v337.555c0,8.378-6.814,15.192-15.191,15.192H91.932
			c-8.378,0-15.191-6.816-15.191-15.192V223.068"/>
		<path d="M121.068,303.372h85.129c9.991,0,18.092-8.099,18.092-18.092c0-9.991-8.101-18.092-18.092-18.092h-85.129
			c-9.991,0-18.092,8.101-18.092,18.092S111.077,303.372,121.068,303.372z"/>
		<path d="M405.808,303.372h85.126c9.991,0,18.092-8.099,18.092-18.092c0-9.991-8.1-18.092-18.092-18.092h-85.126
			c-9.994,0-18.092,8.101-18.092,18.092S395.814,303.372,405.808,303.372z"/>
		<path d="M263.436,303.372h85.129c9.991,0,18.092-8.099,18.092-18.092c0-9.991-8.1-18.092-18.092-18.092h-85.129
			c-9.991,0-18.092,8.101-18.092,18.092S253.445,303.372,263.436,303.372z"/>
		<path d="M121.068,380.115h85.129c9.991,0,18.092-8.099,18.092-18.092c0-9.993-8.101-18.092-18.092-18.092h-85.129
			c-9.991,0-18.092,8.099-18.092,18.092C102.977,372.016,111.077,380.115,121.068,380.115z"/>
		<path d="M405.808,380.115h85.126c9.991,0,18.092-8.099,18.092-18.092c0-9.993-8.1-18.092-18.092-18.092h-85.126
			c-9.994,0-18.092,8.099-18.092,18.092C387.716,372.016,395.814,380.115,405.808,380.115z"/>
		<path d="M263.436,380.115h85.129c9.991,0,18.092-8.099,18.092-18.092c0-9.993-8.1-18.092-18.092-18.092h-85.129
			c-9.991,0-18.092,8.099-18.092,18.092C245.344,372.016,253.445,380.115,263.436,380.115z"/>
		<path d="M121.068,456.857h85.129c9.991,0,18.092-8.1,18.092-18.092c0-9.993-8.101-18.092-18.092-18.092h-85.129
			c-9.991,0-18.092,8.099-18.092,18.092C102.977,448.758,111.077,456.857,121.068,456.857z"/>
		<path d="M405.808,533.602h85.126c9.991,0,18.092-8.099,18.092-18.092v-76.743c0-9.993-8.1-18.092-18.092-18.092h-85.126
			c-9.994,0-18.092,8.099-18.092,18.092v76.743C387.716,525.501,395.814,533.602,405.808,533.602z M423.896,497.418v-40.56h48.945
			v40.56"/>
		<path d="M263.436,456.857h85.129c9.991,0,18.092-8.1,18.092-18.092c0-9.993-8.1-18.092-18.092-18.092h-85.129
			c-9.991,0-18.092,8.099-18.092,18.092C245.344,448.758,253.445,456.857,263.436,456.857z"/>
		<path d="M121.068,533.602h85.129c9.991,0,18.092-8.099,18.092-18.092c0-9.991-8.101-18.092-18.092-18.092h-85.129
			c-9.991,0-18.092,8.1-18.092,18.092C102.977,525.501,111.077,533.602,121.068,533.602z"/>
		<path d="M263.436,533.602h85.129c9.991,0,18.092-8.099,18.092-18.092c0-9.991-8.1-18.092-18.092-18.092h-85.129
			c-9.991,0-18.092,8.1-18.092,18.092C245.344,525.501,253.445,533.602,263.436,533.602z"/>
	</g>
</g>
<g>
</g>
<g>
</g>
<g>
</g>
<g>
</g>
<g>
</g>
<g>
</g>
<g>
</g>
<g>
</g>
<g>
</g>
<g>
</g>
<g>
</g>
<g>
</g>
<g>
</g>
<g>
</g>
<g>
</g>
</svg>
