<?xml version="1.0" encoding="iso-8859-1"?>
<!-- Generator: Adobe Illustrator 18.1.1, SVG Export Plug-In . SVG Version: 6.00 Build 0)  -->
<svg version="1.1" id="Capa_1" xmlns="http://www.w3.org/2000/svg" xmlns:xlink="http://www.w3.org/1999/xlink" x="0px" y="0px"
	 viewBox="0 0 611.998 611.998" style="enable-background:new 0 0 611.998 611.998;" xml:space="preserve">
<g>
	<g>
		<g>
			<path d="M518.44,175.851c-55.246-31.035-127.761-48.567-204.913-49.637c-2.496-0.103-5.002-0.168-7.524-0.168
				c-2.52,0-5.024,0.065-7.518,0.168c-77.155,1.07-149.675,18.6-204.922,49.637C33.226,209.746,0,255.966,0,305.999
				c0,50.03,33.226,96.251,93.561,130.145c55.229,31.027,127.714,48.555,204.837,49.637c2.523,0.103,5.055,0.171,7.603,0.171
				c2.549,0,5.084-0.068,7.609-0.174c77.122-1.082,149.602-18.609,204.828-49.634c60.334-33.894,93.56-80.115,93.56-130.145
				C612,255.966,578.773,209.746,518.44,175.851z M111.299,404.566c-48.417-27.197-75.082-62.204-75.082-98.567
				c0-36.368,26.665-71.373,75.082-98.57c19.809-11.129,42.183-20.334,66.393-27.466c-31.921,32.491-51.645,76.998-51.645,126.036
				c0,49.034,19.723,93.542,51.642,126.034C153.481,424.9,131.108,415.695,111.299,404.566z M312.766,449.569
				c-2.251,0.03-4.506,0.047-6.766,0.047c-2.258,0-4.51-0.018-6.759-0.047c-76.131-3.543-136.976-66.583-136.976-143.571
				c0-77.004,60.871-140.055,137.023-143.574c2.233-0.03,4.47-0.047,6.712-0.047c2.244,0,4.485,0.018,6.72,0.047
				c76.147,3.519,137.016,66.568,137.016,143.574C449.734,382.986,388.891,446.027,312.766,449.569z M500.701,404.566
				c-19.808,11.129-42.18,20.334-66.39,27.466c31.918-32.491,51.641-76.998,51.641-126.034c0-49.038-19.723-93.545-51.644-126.036
				c24.209,7.133,46.584,16.337,66.393,27.466c48.417,27.197,75.082,62.204,75.082,98.57
				C575.783,342.362,549.119,377.369,500.701,404.566z"/>
			<path d="M305.998,230.149c-41.823,0-75.848,34.027-75.848,75.85s34.026,75.85,75.848,75.85c41.824,0,75.851-34.027,75.851-75.85
				S347.823,230.149,305.998,230.149z M305.998,345.631c-21.852,0-39.632-17.778-39.632-39.633
				c0-21.854,17.778-39.633,39.632-39.633s39.635,17.778,39.635,39.633C345.633,327.853,327.854,345.631,305.998,345.631z"/>
		</g>
	</g>
</g>
<g>
</g>
<g>
</g>
<g>
</g>
<g>
</g>
<g>
</g>
<g>
</g>
<g>
</g>
<g>
</g>
<g>
</g>
<g>
</g>
<g>
</g>
<g>
</g>
<g>
</g>
<g>
</g>
<g>
</g>
</svg>
