<?xml version="1.0" encoding="iso-8859-1"?>
<!-- Generator: Adobe Illustrator 18.1.1, SVG Export Plug-In . SVG Version: 6.00 Build 0)  -->
<svg version="1.1" id="Capa_1" xmlns="http://www.w3.org/2000/svg" xmlns:xlink="http://www.w3.org/1999/xlink" x="0px" y="0px"
	 viewBox="0 0 612.001 612.001" style="enable-background:new 0 0 612.001 612.001;" xml:space="preserve">
<g>
	<g>
		<g>
			<path d="M606.385,279.742L400.476,78.914c-5.361-5.224-13.33-6.735-20.223-3.826c-6.896,2.908-11.379,9.662-11.379,17.148v103.36
				c-35.1,0.284-118.332,5.823-196.617,47.332c-45.558,24.155-82.92,56.923-111.046,97.394
				C27.566,388.726,7.004,448.46,0.093,517.858c-0.963,9.672,5.663,18.518,15.234,20.224c1.112,0.198,2.214,0.293,3.308,0.293
				c8.316,0,15.802-5.564,17.954-13.882c0.098-0.351,10.07-35.426,50.492-69.978c54.335-46.449,138.819-71.001,244.325-71.001
				c12.126,0,24.687,0.343,37.471,0.977v109.403c0,7.484,4.483,14.242,11.379,17.148c2.335,0.983,4.789,1.461,7.223,1.461
				c4.764,0,9.453-1.83,12.999-5.288l205.908-200.83c3.59-3.501,5.615-8.304,5.615-13.32
				C612,288.049,609.975,283.245,606.385,279.742z M368.875,347.208c-12.771-0.606-25.31-0.91-37.471-0.91
				c-64.262,0-121.447,8.479-169.97,25.203c-39.549,13.629-73.512,32.744-100.95,56.814c-1.442,1.264-2.847,2.526-4.223,3.79
				c63.136-180.553,247.036-198.778,312.613-199.295L368.875,347.208L368.875,347.208z M406.091,449.751v-82.804v-152.34v-78.229
				L566.74,293.064L406.091,449.751z"/>
		</g>
	</g>
</g>
<g>
</g>
<g>
</g>
<g>
</g>
<g>
</g>
<g>
</g>
<g>
</g>
<g>
</g>
<g>
</g>
<g>
</g>
<g>
</g>
<g>
</g>
<g>
</g>
<g>
</g>
<g>
</g>
<g>
</g>
</svg>
