<?xml version="1.0" encoding="iso-8859-1"?>
<!-- Generator: Adobe Illustrator 18.1.1, SVG Export Plug-In . SVG Version: 6.00 Build 0)  -->
<svg version="1.1" id="Capa_1" xmlns="http://www.w3.org/2000/svg" xmlns:xlink="http://www.w3.org/1999/xlink" x="0px" y="0px"
	 viewBox="0 0 612 612" style="enable-background:new 0 0 612 612;" xml:space="preserve">
<g>
	<g>
		<g>
			<path d="M593.946,474.085c9.97,0,18.054-8.083,18.054-18.054V67.421c0-9.97-8.083-18.054-18.054-18.054H18.054
				C8.083,49.367,0,57.451,0,67.421v388.61c0,9.97,8.083,18.054,18.054,18.054h191.091v52.441H18.054
				C8.083,526.526,0,534.609,0,544.579s8.083,18.054,18.054,18.054h209.144h157.604h209.144c9.97,0,18.054-8.083,18.054-18.054
				s-8.083-18.054-18.054-18.054H402.856v-52.441H593.946z M366.747,526.526H245.25v-52.441h121.497L366.747,526.526
				L366.747,526.526z M384.801,437.977H227.198H36.107V85.475h539.786v352.503H384.801z"/>
			<path d="M515.955,113.915H82.602c-9.972,0-18.054,8.083-18.054,18.054v252.17c0,9.973,8.082,18.054,18.054,18.054
				c9.97,0,18.054-8.08,18.054-18.054V150.022h415.299c9.97,0,18.054-8.08,18.054-18.054
				C534.009,121.998,525.925,113.915,515.955,113.915z"/>
		</g>
	</g>
</g>
<g>
</g>
<g>
</g>
<g>
</g>
<g>
</g>
<g>
</g>
<g>
</g>
<g>
</g>
<g>
</g>
<g>
</g>
<g>
</g>
<g>
</g>
<g>
</g>
<g>
</g>
<g>
</g>
<g>
</g>
</svg>
