<?xml version="1.0" encoding="iso-8859-1"?>
<!-- Generator: Adobe Illustrator 18.1.1, SVG Export Plug-In . SVG Version: 6.00 Build 0)  -->
<svg version="1.1" id="Capa_1" xmlns="http://www.w3.org/2000/svg" xmlns:xlink="http://www.w3.org/1999/xlink" x="0px" y="0px"
	 viewBox="0 0 612 612" style="enable-background:new 0 0 612 612;" xml:space="preserve">
<g>
	<g>
		<path d="M542.124,0H69.878c-9.572,0-17.333,7.759-17.333,17.333v326.036c0,9.572,7.761,17.333,17.333,17.333h472.245
			c9.574,0,17.333-7.761,17.333-17.333V17.333C559.457,7.759,551.697,0,542.124,0z M497.884,34.666L306.001,212.28L114.12,34.666
			H497.884z M87.211,56.996l68.749,63.637l-68.749,65.068V56.996z M524.791,326.036H87.211v-92.653
			c0.198-0.172,0.403-0.331,0.597-0.513l93.649-88.636L294.227,248.62c3.322,3.075,7.547,4.612,11.773,4.612
			c4.225,0,8.453-1.537,11.773-4.612l112.772-104.386l94.244,89.199V326.036z M524.791,185.7l-68.749-65.067l68.749-63.637V185.7z"
			/>
		<path d="M483.152,457.691h-72.8v-47.608c0-9.572-7.759-17.333-17.333-17.333H218.983c-9.572,0-17.333,7.761-17.333,17.333v47.608
			h-72.8c-7.619,0-14.345,4.975-16.575,12.26c-2.23,7.286,0.559,15.172,6.873,19.436L296.299,609.03
			c2.931,1.979,6.316,2.97,9.701,2.97c3.386,0,6.77-0.989,9.701-2.97l177.151-119.643c6.314-4.264,9.103-12.15,6.873-19.436
			C497.497,462.665,490.772,457.691,483.152,457.691z M306.001,573.752l-120.518-81.395h33.501c9.574,0,17.333-7.761,17.333-17.333
			v-47.608h139.37v47.608c0,9.572,7.761,17.333,17.333,17.333h33.499L306.001,573.752z"/>
	</g>
</g>
<g>
</g>
<g>
</g>
<g>
</g>
<g>
</g>
<g>
</g>
<g>
</g>
<g>
</g>
<g>
</g>
<g>
</g>
<g>
</g>
<g>
</g>
<g>
</g>
<g>
</g>
<g>
</g>
<g>
</g>
</svg>
