<?xml version="1.0" encoding="iso-8859-1"?>
<!-- Generator: Adobe Illustrator 18.1.1, SVG Export Plug-In . SVG Version: 6.00 Build 0)  -->
<svg version="1.1" id="Capa_1" xmlns="http://www.w3.org/2000/svg" xmlns:xlink="http://www.w3.org/1999/xlink" x="0px" y="0px"
	 viewBox="0 0 612.001 612.001" style="enable-background:new 0 0 612.001 612.001;" xml:space="preserve">
<g>
	<path d="M594.113,64.212H177.165c-9.879,0-17.887,8.009-17.887,17.887v63.497H96.601c-9.879,0-17.887,8.009-17.887,17.887v60.676
		H17.887C8.009,224.158,0,232.165,0,242.044v287.859c0,9.878,8.009,17.887,17.887,17.887h416.952
		c9.878,0,17.887-8.009,17.887-17.887v-60.676h60.825c9.878,0,17.887-8.007,17.887-17.887v-63.497h62.679
		c9.878,0,17.887-8.007,17.887-17.887V82.098C612,72.221,603.991,64.212,594.113,64.212z M389.181,259.931l-162.82,150.714
		L63.54,259.931H389.181z M35.773,282.973l54.335,50.294l-54.335,51.427V282.973z M416.952,512.016H35.773v-78.5
		c0.921-0.592,1.804-1.273,2.629-2.054l78.018-73.84l97.79,90.521c3.43,3.175,7.791,4.761,12.151,4.761
		c4.361,0,8.723-1.587,12.148-4.761l97.795-90.521l79.386,75.135c0.405,0.385,0.827,0.742,1.261,1.082L416.952,512.016
		L416.952,512.016z M416.952,384.696l-54.338-51.428l54.338-50.294V384.696z M495.663,433.454h-42.938v-191.41
		c0-9.879-8.009-17.887-17.887-17.887H114.487v-42.789h381.176V433.454z M576.227,352.07h-44.792V163.482
		c0-9.878-8.009-17.887-17.887-17.887H195.051V99.985h381.176V352.07z"/>
</g>
<g>
</g>
<g>
</g>
<g>
</g>
<g>
</g>
<g>
</g>
<g>
</g>
<g>
</g>
<g>
</g>
<g>
</g>
<g>
</g>
<g>
</g>
<g>
</g>
<g>
</g>
<g>
</g>
<g>
</g>
</svg>
