<?xml version="1.0" encoding="iso-8859-1"?>
<!-- Generator: Adobe Illustrator 18.1.1, SVG Export Plug-In . SVG Version: 6.00 Build 0)  -->
<svg version="1.1" id="Capa_1" xmlns="http://www.w3.org/2000/svg" xmlns:xlink="http://www.w3.org/1999/xlink" x="0px" y="0px"
	 viewBox="0 0 612 612" style="enable-background:new 0 0 612 612;" xml:space="preserve">
<g>
	<g>
		<path d="M610.637,298.682c-2.649-6.179-8.726-10.186-15.447-10.186h-51.818c-4.252-67.123-32.841-129.603-81.239-176.94
			c-51.116-49.994-118.648-77.528-190.16-77.528C122.007,34.028,0,156.034,0,306.001c0,149.965,122.007,271.971,271.972,271.971
			c9.284,0,16.81-7.527,16.81-16.81V448.33c0-9.284-7.527-16.81-16.81-16.81c-69.211,0-125.518-56.307-125.518-125.518
			s56.305-125.519,125.518-125.519c63.447,0,115.835,46.523,124.319,108.014h-56.486c-6.723,0-12.8,4.005-15.45,10.186
			c-2.649,6.179-1.363,13.342,3.272,18.213L455.32,451.096c3.172,3.336,7.573,5.222,12.178,5.222c4.602,0,9.005-1.888,12.178-5.222
			l127.692-134.201C612.003,312.026,613.289,304.862,610.637,298.682z M379.004,322.118H555.99l-88.493,93.004L379.004,322.118z
			 M382.386,191.395c-29.804-28.718-69.015-44.534-110.414-44.534c-87.749,0-159.139,71.39-159.139,159.14
			c0,82.073,62.451,149.833,142.328,158.258v79.504c-123.62-8.648-221.541-111.984-221.541-237.763
			c0-131.427,106.923-238.351,238.351-238.351c124.42,0,228.66,98.029,237.711,220.847h-79.527
			C426.123,251.575,409.405,217.433,382.386,191.395z"/>
	</g>
</g>
<g>
</g>
<g>
</g>
<g>
</g>
<g>
</g>
<g>
</g>
<g>
</g>
<g>
</g>
<g>
</g>
<g>
</g>
<g>
</g>
<g>
</g>
<g>
</g>
<g>
</g>
<g>
</g>
<g>
</g>
</svg>
