<?xml version="1.0" encoding="iso-8859-1"?>
<!-- Generator: Adobe Illustrator 18.1.1, SVG Export Plug-In . SVG Version: 6.00 Build 0)  -->
<svg version="1.1" id="Capa_1" xmlns="http://www.w3.org/2000/svg" xmlns:xlink="http://www.w3.org/1999/xlink" x="0px" y="0px"
	 viewBox="0 0 612.002 612.002" style="enable-background:new 0 0 612.002 612.002;" xml:space="preserve">
<g>
	<g>
		<g>
			<path d="M538.234,220.494H201.514c3.456-54.641,48.984-98.048,104.484-98.048c27.972,0,54.268,10.893,74.047,30.674
				c7.151,7.148,18.71,7.232,25.963,0.193l59.604-57.84c3.544-3.436,5.564-8.144,5.616-13.079c0.054-4.935-1.87-9.686-5.339-13.198
				C423.33,26.124,366.546,2.4,305.998,2.4C184.295,2.4,84.883,99.631,81.34,220.493h-7.575C33.09,220.494,0,253.585,0,294.259
				v241.577c0,40.675,33.09,73.765,73.765,73.765h464.469c40.675,0,73.768-33.09,73.768-73.765V294.259
				C612,253.585,578.907,220.494,538.234,220.494z M425.8,82.56l-33.307,32.319c-24.675-19.089-54.789-29.429-86.494-29.429
				c-75.905,0-138.06,59.986-141.555,135.046h-46.083C121.89,120.04,204.699,39.401,305.998,39.401
				C350.301,39.401,392.192,54.606,425.8,82.56z M575.002,535.836c0,20.272-16.493,36.767-36.77,36.767H73.765
				c-20.272,0-36.767-16.493-36.767-36.767V294.259c0-20.275,16.493-36.767,36.767-36.767h464.469
				c20.275,0,36.77,16.49,36.77,36.767v241.577H575.002z"/>
			<path d="M305.998,307.471c-42.545,0-77.155,34.61-77.155,77.155c0,22.193,9.505,43.08,25.84,57.623v58.391
				c0,10.216,8.283,18.499,18.499,18.499h65.631c10.216,0,18.499-8.283,18.499-18.499v-58.391
				c16.335-14.543,25.843-35.43,25.843-57.623C383.156,342.081,348.543,307.471,305.998,307.471z M328.452,417.927
				c-5.089,3.441-8.135,9.183-8.135,15.325v48.888h-28.633v-48.888c0-6.142-3.048-11.884-8.135-15.325
				c-11.086-7.494-17.704-19.945-17.704-33.301c0-22.142,18.015-40.157,40.157-40.157s40.16,18.015,40.16,40.157
				C346.158,397.982,339.537,410.432,328.452,417.927z"/>
		</g>
	</g>
</g>
<g>
</g>
<g>
</g>
<g>
</g>
<g>
</g>
<g>
</g>
<g>
</g>
<g>
</g>
<g>
</g>
<g>
</g>
<g>
</g>
<g>
</g>
<g>
</g>
<g>
</g>
<g>
</g>
<g>
</g>
</svg>
