<?xml version="1.0" encoding="iso-8859-1"?>
<!-- Generator: Adobe Illustrator 18.1.1, SVG Export Plug-In . SVG Version: 6.00 Build 0)  -->
<svg version="1.1" id="Capa_1" xmlns="http://www.w3.org/2000/svg" xmlns:xlink="http://www.w3.org/1999/xlink" x="0px" y="0px"
	 viewBox="0 0 612 612" style="enable-background:new 0 0 612 612;" xml:space="preserve">
<g>
	<g>
		<g>
			<path d="M306,111.918c-113.645,0-206.103,92.456-206.103,206.101S192.354,524.12,306,524.12s206.101-92.456,206.101-206.101
				S419.646,111.918,306,111.918z M306,489.752c-94.695,0-171.734-77.039-171.734-171.732S211.305,146.287,306,146.287
				c94.693,0,171.732,77.039,171.732,171.732S400.693,489.752,306,489.752z"/>
			<path d="M564.843,318.019c0-142.728-116.118-258.843-258.843-258.843c-142.728,0-258.846,116.115-258.846,258.843
				c0,77.028,33.832,146.288,87.401,193.747l-33.311,54.711c-4.936,8.105-2.366,18.678,5.74,23.614
				c2.791,1.698,5.877,2.509,8.922,2.509c5.798,0,11.456-2.937,14.693-8.251l31.303-51.407c41.215,27.723,90.8,43.92,144.098,43.92
				c53.297,0,102.88-16.196,144.096-43.92l31.303,51.407c3.236,5.317,8.894,8.251,14.694,8.251c3.045,0,6.129-0.811,8.922-2.509
				c8.105-4.936,10.676-15.509,5.741-23.614l-33.313-54.711C531.011,464.307,564.843,395.047,564.843,318.019z M306,542.493
				c-123.776,0-224.477-100.698-224.477-224.474S182.224,93.545,306,93.545s224.474,100.698,224.474,224.474
				S429.776,542.493,306,542.493z"/>
			<path d="M419.058,334.72l-65.405-21.327c-2.334-24.239-22.814-43.255-47.652-43.255c-2.664,0-5.276,0.226-7.82,0.649
				l-55.36-78.905c-5.45-7.77-16.169-9.649-23.936-4.199c-7.77,5.452-9.649,16.169-4.199,23.936l53.804,76.69
				c-6.484,8.17-10.372,18.49-10.372,29.709c0,26.404,21.479,47.884,47.883,47.884c15.724,0,29.7-7.624,38.436-19.365l63.969,20.859
				c1.77,0.576,3.566,0.851,5.331,0.851c7.237,0,13.969-4.61,16.334-11.862C433.013,347.362,428.082,337.661,419.058,334.72z
				 M306,331.533c-7.451,0-13.514-6.063-13.514-13.516c0-7.451,6.062-13.513,13.514-13.513c7.451,0,13.511,6.06,13.511,13.513
				C319.513,325.47,313.451,331.533,306,331.533z"/>
			<path d="M170.896,73.034c3.222-3.225,5.032-7.594,5.032-12.152c0-4.557-1.81-8.927-5.032-12.149
				C151.982,29.819,126.835,19.4,100.088,19.4c-26.749,0-51.893,10.415-70.806,29.328c-39.043,39.046-39.043,102.572,0,141.615
				c3.357,3.357,7.753,5.035,12.149,5.035c4.399,0,8.797-1.678,12.152-5.035L170.896,73.034z M53.584,73.031
				c12.421-12.421,28.937-19.262,46.504-19.262c11.683,0,22.901,3.026,32.759,8.707L43.043,152.28
				C28.631,127.155,32.143,94.473,53.584,73.031z"/>
			<path d="M582.719,48.729c-18.914-18.913-44.061-29.328-70.807-29.328c-26.748,0-51.894,10.418-70.807,29.331
				c-3.224,3.222-5.035,7.594-5.035,12.149c0,4.56,1.812,8.927,5.035,12.152l117.311,117.309c3.355,3.357,7.753,5.035,12.151,5.035
				c4.396,0,8.797-1.678,12.151-5.035C621.761,151.302,621.761,87.774,582.719,48.729z M568.954,152.28L479.15,62.475
				c9.86-5.681,21.078-8.707,32.761-8.707c17.568,0,34.084,6.841,46.505,19.262C579.855,94.473,583.369,127.155,568.954,152.28z"/>
		</g>
	</g>
</g>
<g>
</g>
<g>
</g>
<g>
</g>
<g>
</g>
<g>
</g>
<g>
</g>
<g>
</g>
<g>
</g>
<g>
</g>
<g>
</g>
<g>
</g>
<g>
</g>
<g>
</g>
<g>
</g>
<g>
</g>
</svg>
