<?xml version="1.0" encoding="iso-8859-1"?>
<!-- Generator: Adobe Illustrator 18.1.1, SVG Export Plug-In . SVG Version: 6.00 Build 0)  -->
<svg version="1.1" id="Capa_1" xmlns="http://www.w3.org/2000/svg" xmlns:xlink="http://www.w3.org/1999/xlink" x="0px" y="0px"
	 viewBox="0 0 612.002 612.002" style="enable-background:new 0 0 612.002 612.002;" xml:space="preserve">
<g>
	<g>
		<g>
			<path d="M538.237,220.494h-7.575C527.116,99.633,427.703,2.401,306,2.401C184.297,2.403,84.884,99.633,81.34,220.494h-7.575
				C33.09,220.494,0,253.584,0,294.259v241.577c0,40.675,33.09,73.765,73.765,73.765h464.472c40.675,0,73.765-33.09,73.765-73.765
				V294.259C612,253.584,578.91,220.494,538.237,220.494z M305.998,39.401c101.302,0,184.11,80.639,187.639,181.095h-46.081
				c-3.499-75.058-65.65-135.046-141.558-135.046c-75.905,0-138.057,59.986-141.555,135.046h-46.081
				C121.892,120.038,204.699,39.401,305.998,39.401z M410.486,220.494H201.518c3.456-54.641,48.984-98.048,104.481-98.048
				C361.499,122.447,407.028,165.852,410.486,220.494z M575.002,535.836c0,20.272-16.493,36.767-36.767,36.767H73.765
				c-20.272,0-36.767-16.493-36.767-36.767V294.259c0-20.275,16.493-36.767,36.767-36.767h464.472
				c20.272,0,36.767,16.49,36.767,36.767v241.577H575.002z"/>
			<path d="M306,307.47c-42.545,0-77.156,34.61-77.156,77.155c0,22.193,9.505,43.08,25.843,57.623v58.391
				c0,10.216,8.281,18.499,18.499,18.499h65.628c10.218,0,18.499-8.283,18.499-18.499v-58.391
				c16.338-14.543,25.843-35.429,25.843-57.623C383.156,342.08,348.545,307.47,306,307.47z M328.455,417.926
				c-5.089,3.441-8.138,9.183-8.138,15.325v48.888h-28.63v-48.888c0-6.142-3.051-11.884-8.138-15.325
				c-11.086-7.494-17.704-19.945-17.704-33.3c0-22.142,18.015-40.157,40.158-40.157c22.143,0,40.158,18.015,40.158,40.157
				C346.158,397.981,339.54,410.431,328.455,417.926z"/>
		</g>
	</g>
</g>
<g>
</g>
<g>
</g>
<g>
</g>
<g>
</g>
<g>
</g>
<g>
</g>
<g>
</g>
<g>
</g>
<g>
</g>
<g>
</g>
<g>
</g>
<g>
</g>
<g>
</g>
<g>
</g>
<g>
</g>
</svg>
