<?xml version="1.0" encoding="iso-8859-1"?>
<!-- Generator: Adobe Illustrator 18.1.1, SVG Export Plug-In . SVG Version: 6.00 Build 0)  -->
<svg version="1.1" id="Capa_1" xmlns="http://www.w3.org/2000/svg" xmlns:xlink="http://www.w3.org/1999/xlink" x="0px" y="0px"
	 viewBox="0 0 612 612" style="enable-background:new 0 0 612 612;" xml:space="preserve">
<g>
	<g>
		<g>
			<path d="M575.758,14.777H36.242C16.259,14.777,0,31.035,0,51.019v32.792c0,19.984,16.259,36.245,36.242,36.245h30.334v282.265
				c0,19.986,16.259,36.244,36.242,36.244h186.158v80.592l-166.561,44.595c-9.082,2.433-14.473,11.765-12.042,20.846
				c2.037,7.608,8.916,12.625,16.432,12.625c1.458,0,2.941-0.189,4.415-0.583l174.107-46.616c0.224,0.009,0.445,0.034,0.674,0.034
				c0.227,0,0.448-0.024,0.675-0.034l174.105,46.616c1.474,0.394,2.955,0.583,4.412,0.583c7.518,0,14.395-5.017,16.434-12.625
				c2.43-9.08-2.961-18.413-12.041-20.846l-166.563-44.596v-80.59H509.18c19.984,0,36.242-16.258,36.242-36.244V120.057h30.336
				c19.984,0,36.242-16.259,36.242-36.245V51.019C612,31.035,595.742,14.777,575.758,14.777z M577.955,83.812
				c0,1.213-0.984,2.2-2.197,2.2H36.242c-1.211,0-2.197-0.987-2.197-2.2V51.019c0-1.211,0.986-2.197,2.197-2.197h539.515
				c1.211,0,2.197,0.986,2.197,2.197V83.812z M511.377,402.322c0,1.211-0.984,2.199-2.197,2.199H102.819
				c-1.211,0-2.197-0.987-2.197-2.199V120.057h410.755L511.377,402.322L511.377,402.322z"/>
			<path d="M143.933,381.356c4.003,0,8.023-1.404,11.259-4.261l104.667-92.401l44.722,40.348c6.654,6.003,16.823,5.82,23.256-0.42
				l113.855-110.445c6.747-6.545,6.91-17.322,0.366-24.071c-6.547-6.747-17.323-6.911-24.071-0.365l-102.425,99.358l-44.178-39.857
				c-6.426-5.798-16.179-5.85-22.668-0.122L132.659,351.572c-7.046,6.222-7.717,16.98-1.494,24.027
				C134.529,379.411,139.219,381.356,143.933,381.356z"/>
			<path d="M468.076,181.221c4.483,0,8.866-1.816,12.029-4.993c3.178-3.163,4.993-7.547,4.993-12.029s-1.814-8.866-4.993-12.043
				c-3.163-3.163-7.547-4.979-12.029-4.979s-8.866,1.816-12.042,4.979c-3.162,3.178-4.98,7.561-4.98,12.043
				c0,4.483,1.817,8.866,4.98,12.029C459.21,179.405,463.593,181.221,468.076,181.221z"/>
		</g>
	</g>
</g>
<g>
</g>
<g>
</g>
<g>
</g>
<g>
</g>
<g>
</g>
<g>
</g>
<g>
</g>
<g>
</g>
<g>
</g>
<g>
</g>
<g>
</g>
<g>
</g>
<g>
</g>
<g>
</g>
<g>
</g>
</svg>
