<?xml version="1.0" encoding="iso-8859-1"?>
<!-- Generator: Adobe Illustrator 18.1.1, SVG Export Plug-In . SVG Version: 6.00 Build 0)  -->
<svg version="1.1" id="Capa_1" xmlns="http://www.w3.org/2000/svg" xmlns:xlink="http://www.w3.org/1999/xlink" x="0px" y="0px"
	 viewBox="0 0 612 612" style="enable-background:new 0 0 612 612;" xml:space="preserve">
<g>
	<g>
		<g>
			<path d="M553.819,0H58.18C26.101,0,0.002,26.1,0.002,58.182v495.636C0.002,585.9,26.101,612,58.18,612h495.637
				c32.082,0,58.181-26.1,58.181-58.182V58.182C611.999,26.1,585.9,0,553.819,0z M573.647,553.818
				c0,10.934-8.895,19.83-19.828,19.83H58.18c-10.934,0-19.825-8.896-19.825-19.83V58.182c0-10.934,8.893-19.83,19.825-19.83
				h495.637c10.934,0,19.828,8.896,19.828,19.83v495.636H573.647z"/>
			<g>
				<path d="M306.005,69.427c-130.448,0-236.578,106.126-236.578,236.572s106.131,236.573,236.578,236.573
					c130.444,0,236.569-106.127,236.569-236.573S436.448,69.427,306.005,69.427z M306.005,504.22
					c-109.301,0-198.226-88.922-198.226-198.221S196.702,107.78,306.005,107.78c109.298,0,198.216,88.92,198.216,198.219
					S415.303,504.22,306.005,504.22z"/>
				<path d="M306.005,424.84c-65.528,0-118.843-53.311-118.843-118.841c0-10.59-8.586-19.176-19.176-19.176
					c-10.59,0-19.176,8.586-19.176,19.176c0,86.676,70.519,157.194,157.195,157.194c10.59,0,19.176-8.586,19.176-19.176
					C325.181,433.425,316.595,424.84,306.005,424.84z"/>
			</g>
		</g>
	</g>
</g>
<g>
</g>
<g>
</g>
<g>
</g>
<g>
</g>
<g>
</g>
<g>
</g>
<g>
</g>
<g>
</g>
<g>
</g>
<g>
</g>
<g>
</g>
<g>
</g>
<g>
</g>
<g>
</g>
<g>
</g>
</svg>
