<?xml version="1.0" encoding="iso-8859-1"?>
<!-- Generator: Adobe Illustrator 18.1.1, SVG Export Plug-In . SVG Version: 6.00 Build 0)  -->
<svg version="1.1" id="Capa_1" xmlns="http://www.w3.org/2000/svg" xmlns:xlink="http://www.w3.org/1999/xlink" x="0px" y="0px"
	 viewBox="0 0 612 612" style="enable-background:new 0 0 612 612;" xml:space="preserve">
<g>
	<g>
		<g>
			<path d="M306,550.583c4.778,0,9.451-1.937,12.823-5.323c3.372-3.372,5.323-8.045,5.323-12.823s-1.949-9.466-5.323-12.838
				c-3.372-3.372-8.045-5.308-12.823-5.308c-4.778,0-9.466,1.934-12.835,5.308c-3.372,3.387-5.311,8.06-5.311,12.838
				s1.937,9.451,5.311,12.823C296.534,548.646,301.222,550.583,306,550.583z"/>
			<path d="M448.265,0h-284.53c-30.33,0-55.01,24.675-55.01,55.007V556.99c0,30.332,24.678,55.01,55.01,55.01h284.53
				c30.335,0,55.01-24.678,55.01-55.01V55.007C503.275,24.675,478.6,0,448.265,0z M466.984,556.99
				c0,10.322-8.397,18.719-18.719,18.719h-284.53c-10.322,0-18.719-8.397-18.719-18.719v-62.63h321.967V556.99z M466.984,458.069
				H145.016V55.007c0-10.319,8.397-18.719,18.719-18.719h284.53c10.322,0,18.719,8.4,18.719,18.719V458.069z"/>
			<path d="M306,54.499h-87.763c-30.332,0-55.01,24.678-55.01,55.01v295.41c0,10.021,8.125,18.146,18.146,18.146
				s18.146-8.125,18.146-18.146v-295.41c0-10.322,8.397-18.719,18.719-18.719H306c10.021,0,18.146-8.122,18.146-18.146
				C324.146,62.624,316.021,54.499,306,54.499z"/>
		</g>
	</g>
</g>
<g>
</g>
<g>
</g>
<g>
</g>
<g>
</g>
<g>
</g>
<g>
</g>
<g>
</g>
<g>
</g>
<g>
</g>
<g>
</g>
<g>
</g>
<g>
</g>
<g>
</g>
<g>
</g>
<g>
</g>
</svg>
