<?xml version="1.0" encoding="iso-8859-1"?>
<!-- Generator: Adobe Illustrator 18.1.1, SVG Export Plug-In . SVG Version: 6.00 Build 0)  -->
<svg version="1.1" id="Capa_1" xmlns="http://www.w3.org/2000/svg" xmlns:xlink="http://www.w3.org/1999/xlink" x="0px" y="0px"
	 viewBox="0 0 612 612" style="enable-background:new 0 0 612 612;" xml:space="preserve">
<g>
	<g>
		<g>
			<path d="M553.821,0H58.181C26.1,0,0.002,26.1,0.002,58.182v495.636C0.002,585.9,26.1,612,58.181,612h495.641
				c32.079,0,58.177-26.1,58.177-58.182V58.182C611.998,26.1,585.9,0,553.821,0z M573.646,553.818
				c0,10.934-8.891,19.83-19.825,19.83H58.181c-10.934,0-19.827-8.896-19.827-19.83V58.182c0-10.935,8.893-19.83,19.827-19.83
				h495.641c10.934,0,19.825,8.895,19.825,19.83V553.818z"/>
			<path d="M274.589,95.35H165.948c-10.59,0-19.176,8.585-19.176,19.176v382.947c0,10.592,8.586,19.176,19.176,19.176h108.641
				c10.59,0,19.176-8.585,19.176-19.176V114.527C293.765,103.935,285.179,95.35,274.589,95.35z M255.412,478.297h-70.289V133.703
				h70.289V478.297z"/>
			<path d="M446.051,95.35H337.411c-10.59,0-19.176,8.585-19.176,19.176v382.947c0,10.592,8.586,19.176,19.176,19.176h108.639
				c10.59,0,19.176-8.585,19.176-19.176V114.527C465.227,103.935,456.641,95.35,446.051,95.35z M426.875,478.297h-70.287V133.703
				h70.287V478.297z"/>
		</g>
	</g>
</g>
<g>
</g>
<g>
</g>
<g>
</g>
<g>
</g>
<g>
</g>
<g>
</g>
<g>
</g>
<g>
</g>
<g>
</g>
<g>
</g>
<g>
</g>
<g>
</g>
<g>
</g>
<g>
</g>
<g>
</g>
</svg>
