<?xml version="1.0" encoding="iso-8859-1"?>
<!-- Generator: Adobe Illustrator 18.1.1, SVG Export Plug-In . SVG Version: 6.00 Build 0)  -->
<svg version="1.1" id="Capa_1" xmlns="http://www.w3.org/2000/svg" xmlns:xlink="http://www.w3.org/1999/xlink" x="0px" y="0px"
	 viewBox="0 0 611.998 611.998" style="enable-background:new 0 0 611.998 611.998;" xml:space="preserve">
<g>
	<g>
		<g>
			<path d="M553.818,0H58.181C26.099,0,0,26.1,0,58.181v495.637c0,32.082,26.099,58.181,58.181,58.181h495.637
				c32.079,0,58.181-26.099,58.181-58.181V58.181C612,26.1,585.898,0,553.818,0z M573.648,553.818
				c0,10.934-8.895,19.828-19.828,19.828H58.181c-10.934,0-19.828-8.895-19.828-19.828V58.181c0-10.934,8.895-19.828,19.828-19.828
				h495.637c10.934,0,19.828,8.895,19.828,19.828v495.637H573.648z"/>
			<path d="M457.737,290.797L177.635,75.444c-5.79-4.452-13.605-5.23-20.162-2.001c-6.552,3.228-10.702,9.897-10.702,17.203v430.71
				c0,7.305,4.152,13.975,10.702,17.203c2.688,1.323,5.587,1.974,8.471,1.974c4.155,0,8.278-1.347,11.691-3.974l280.102-215.357
				c4.722-3.629,7.488-9.246,7.488-15.202C465.225,300.045,462.461,294.426,457.737,290.797z M185.124,482.423V129.578
				l229.465,176.421L185.124,482.423z"/>
			<path d="M236.549,414.792c4.08,0,8.19-1.298,11.673-3.974l118.434-91.057c8.396-6.456,9.968-18.494,3.514-26.89
				c-6.458-8.398-18.492-9.97-26.891-3.514l-118.434,91.055c-8.396,6.454-9.968,18.494-3.514,26.89
				C225.111,412.216,230.798,414.792,236.549,414.792z"/>
		</g>
	</g>
</g>
<g>
</g>
<g>
</g>
<g>
</g>
<g>
</g>
<g>
</g>
<g>
</g>
<g>
</g>
<g>
</g>
<g>
</g>
<g>
</g>
<g>
</g>
<g>
</g>
<g>
</g>
<g>
</g>
<g>
</g>
</svg>
