<?xml version="1.0" encoding="iso-8859-1"?>
<!-- Generator: Adobe Illustrator 18.1.1, SVG Export Plug-In . SVG Version: 6.00 Build 0)  -->
<svg version="1.1" id="Capa_1" xmlns="http://www.w3.org/2000/svg" xmlns:xlink="http://www.w3.org/1999/xlink" x="0px" y="0px"
	 viewBox="0 0 612 612" style="enable-background:new 0 0 612 612;" xml:space="preserve">
<g>
	<g>
		<g>
			<path d="M118.71,468.996h119.845c9.578,0,17.344-7.765,17.344-17.344v-87.579c0-9.578-7.766-17.344-17.344-17.344H118.71
				c-9.578,0-17.344,7.766-17.344,17.344v87.579C101.365,461.232,109.131,468.996,118.71,468.996z M136.054,381.417h85.156v52.891
				h-85.156V381.417z"/>
			<path d="M603.68,245.086c-5.166-3.151-11.602-3.378-16.974-0.604l-110.63,57.068v-25.155c0-9.58-7.766-17.344-17.344-17.344
				h-54.018c27.646-20.98,45.544-54.171,45.544-91.473c0-63.29-51.491-114.78-114.78-114.78c-52.362,0-96.615,35.253-110.348,83.259
				c-13.737-48.008-57.987-83.259-110.346-83.259C51.491,52.797,0,104.287,0,167.577c0,37.304,17.898,70.494,45.544,91.473H17.344
				C7.766,259.05,0,266.814,0,276.394V525.36c0,9.578,7.766,17.344,17.344,17.344h441.387c9.578,0,17.344-7.766,17.344-17.344
				v-25.152l110.63,57.065c2.499,1.291,5.225,1.931,7.95,1.931c3.134,0,6.261-0.85,9.025-2.534c5.169-3.148,8.32-8.762,8.32-14.811
				V259.897C612,253.845,608.849,248.234,603.68,245.086z M335.477,87.486c44.163,0,80.091,35.928,80.091,80.091
				c0,44.165-35.928,80.094-80.091,80.094c-44.166,0-80.097-35.929-80.097-80.094C255.38,123.413,291.311,87.486,335.477,87.486z
				 M266.236,259.05h-82.217c19.547-14.831,34.189-35.773,41.108-59.954C232.045,223.277,246.691,244.219,266.236,259.05z
				 M34.689,167.577c0-44.163,35.931-80.091,80.094-80.091s80.091,35.928,80.091,80.091c0,44.165-35.928,80.094-80.091,80.094
				S34.689,211.741,34.689,167.577z M441.387,330.013v141.732v36.272H34.689V293.74h406.698V330.013z M577.311,513.397
				l-101.235-52.221V340.582l101.235-52.223L577.311,513.397L577.311,513.397z"/>
		</g>
	</g>
</g>
<g>
</g>
<g>
</g>
<g>
</g>
<g>
</g>
<g>
</g>
<g>
</g>
<g>
</g>
<g>
</g>
<g>
</g>
<g>
</g>
<g>
</g>
<g>
</g>
<g>
</g>
<g>
</g>
<g>
</g>
</svg>
