<?xml version="1.0" encoding="iso-8859-1"?>
<!-- Generator: Adobe Illustrator 18.1.1, SVG Export Plug-In . SVG Version: 6.00 Build 0)  -->
<svg version="1.1" id="Capa_1" xmlns="http://www.w3.org/2000/svg" xmlns:xlink="http://www.w3.org/1999/xlink" x="0px" y="0px"
	 viewBox="0 0 612.002 612.002" style="enable-background:new 0 0 612.002 612.002;" xml:space="preserve">
<g>
	<g>
		<path d="M386.152,346.51c-0.019-0.066-0.04-0.13-0.061-0.195c-7.491-23.424-16.752-41.312-22.797-51.636
			c33.421-17.816,55.909-50.693,55.909-88.247c0-15.123-4.997-32.368-14.452-49.87C371.7,95.379,302.203,9.671,299.261,6.052
			c-4.596-5.655-12.377-7.596-19.092-4.76c-6.715,2.834-10.752,9.761-9.909,17.001c8.924,76.494-28.747,109.278-51.255,128.866
			c-7.712,6.712-13.35,11.619-16.52,17.79c-0.16,0.305-0.313,0.613-0.456,0.926c-6.122,12.841-9.229,26.485-9.229,40.557
			c0,37.555,22.488,70.431,55.912,88.247c-6.04,10.316-15.292,28.185-22.782,51.582c-0.031,0.098-0.064,0.195-0.093,0.296
			c-3.722,11.675-7.006,24.706-9.226,38.878c-8.612,54.984-2.356,137.851,76.358,220.376c0.187,0.195,0.376,0.385,0.574,0.572
			l1.168,1.112c3.164,3.004,7.225,4.506,11.288,4.506c4.058,0,8.113-1.498,11.275-4.493l1.173-1.112
			c0.199-0.191,0.395-0.385,0.587-0.586c78.714-82.525,84.97-165.392,76.358-220.376
			C393.171,371.243,389.882,358.197,386.152,346.51z M248.795,391.834c1.283-8.517,3.017-16.592,5.024-24.148h104.368
			c2.007,7.554,3.74,15.629,5.021,24.148c9.666,64.266-9.578,124.618-57.205,179.599
			C258.372,516.451,239.132,456.099,248.795,391.834z M265.178,334.903c4.586-10.656,9.074-18.942,12.21-24.275h57.225
			c3.143,5.338,7.628,13.624,12.213,24.275H265.178z M225.584,206.432c0-9.054,1.987-17.86,5.912-26.183
			c1.294-1.627,5.568-5.348,9.03-8.361c19.099-16.622,54.788-47.686,62.4-107.853c23.131,30.504,54.561,74.007,72.981,108.107
			c6.681,12.369,10.511,24.866,10.511,34.29c0,38.374-36.073,69.595-80.416,69.595S225.584,244.806,225.584,206.432z"/>
	</g>
</g>
<g>
</g>
<g>
</g>
<g>
</g>
<g>
</g>
<g>
</g>
<g>
</g>
<g>
</g>
<g>
</g>
<g>
</g>
<g>
</g>
<g>
</g>
<g>
</g>
<g>
</g>
<g>
</g>
<g>
</g>
</svg>
