<?xml version="1.0" encoding="iso-8859-1"?>
<!-- Generator: Adobe Illustrator 18.1.1, SVG Export Plug-In . SVG Version: 6.00 Build 0)  -->
<svg version="1.1" id="Capa_1" xmlns="http://www.w3.org/2000/svg" xmlns:xlink="http://www.w3.org/1999/xlink" x="0px" y="0px"
	 viewBox="0 0 611.999 611.999" style="enable-background:new 0 0 611.999 611.999;" xml:space="preserve">
<g>
	<g>
		<g>
			<path d="M444.741,233.67c-40.383-26.188-88.362-40.03-138.742-40.03c-50.383,0-98.361,13.844-138.744,40.03
				c-39.45,25.584-69.288,62.182-84.021,103.054c-3.018,8.37,1.321,17.598,9.69,20.616c8.379,3.016,17.6-1.322,20.617-9.692
				C139.8,274.798,217.143,225.853,306,225.853s166.199,48.945,192.46,121.794c2.365,6.565,8.555,10.65,15.154,10.65
				c1.815-0.001,3.658-0.309,5.461-0.96c8.368-3.018,12.708-12.246,9.693-20.616C514.035,295.851,484.194,259.254,444.741,233.67z"
				/>
			<path d="M610.601,294.745c-23.733-53.265-64.758-98.687-118.646-131.356c-54.767-33.2-119.068-50.75-185.955-50.75
				s-131.188,17.549-185.955,50.752c-53.889,32.67-94.916,78.093-118.647,131.357c-3.62,8.128,0.031,17.649,8.156,21.271
				c2.132,0.949,4.357,1.397,6.547,1.397c6.167,0,12.053-3.56,14.724-9.556C74.263,210.364,184.847,144.857,306,144.857
				c121.15,0,231.734,65.504,275.174,163.001c3.618,8.127,13.138,11.776,21.268,8.159
				C610.569,312.395,614.221,302.871,610.601,294.745z"/>
			<path d="M390.216,317.035c-23.04-18.637-52.949-28.9-84.217-28.9c-31.265,0-61.174,10.264-84.217,28.9
				c-23.51,19.014-37.811,44.949-40.273,73.025c-0.776,8.864,5.779,16.676,14.64,17.453c0.479,0.042,0.954,0.063,1.427,0.063
				c8.258,0,15.292-6.32,16.026-14.703c3.565-40.668,44.151-72.522,92.397-72.522c48.248,0,88.834,31.854,92.397,72.521
				c0.776,8.862,8.599,15.422,17.451,14.641c8.865-0.776,15.418-8.59,14.642-17.452C428.03,361.985,413.729,336.05,390.216,317.035z
				"/>
			<path d="M306,375.273c-34.211,0-62.042,27.832-62.042,62.044c0,34.21,27.83,62.044,62.042,62.044
				c34.211,0,62.045-27.832,62.045-62.044S340.211,375.273,306,375.273z M306,467.142c-16.447,0-29.826-13.381-29.826-29.827
				c0-16.448,13.379-29.827,29.826-29.827s29.828,13.379,29.828,29.827C335.828,453.762,322.446,467.142,306,467.142z"/>
		</g>
	</g>
</g>
<g>
</g>
<g>
</g>
<g>
</g>
<g>
</g>
<g>
</g>
<g>
</g>
<g>
</g>
<g>
</g>
<g>
</g>
<g>
</g>
<g>
</g>
<g>
</g>
<g>
</g>
<g>
</g>
<g>
</g>
</svg>
