<?xml version="1.0" encoding="iso-8859-1"?>
<!-- Generator: Adobe Illustrator 18.1.1, SVG Export Plug-In . SVG Version: 6.00 Build 0)  -->
<svg version="1.1" id="Capa_1" xmlns="http://www.w3.org/2000/svg" xmlns:xlink="http://www.w3.org/1999/xlink" x="0px" y="0px"
	 viewBox="0 0 611.998 611.998" style="enable-background:new 0 0 611.998 611.998;" xml:space="preserve">
<g>
	<g>
		<g>
			<g>
				<path d="M305.998,369.684c-50.667,0-91.886,41.221-91.886,91.886c0,9.874,8.004,17.876,17.876,17.876
					s17.876-8.003,17.876-17.876c0-30.951,25.181-56.134,56.134-56.134c9.872,0,17.876-8.003,17.876-17.876
					C323.875,377.688,315.871,369.684,305.998,369.684z"/>
			</g>
			<path d="M600.173,9.961C597.161,3.861,590.948,0,584.145,0H412.199c-5.634,0-10.94,2.656-14.314,7.168L306,130.008L214.112,7.168
				C210.737,2.656,205.432,0,199.798,0H27.852C21.085,0,14.9,3.821,11.87,9.871c-3.03,6.053-2.385,13.294,1.668,18.713
				L195.76,272.189c-5.933,7.781-9.468,17.484-9.468,28.004v0.423c0,18.803,11.277,35.01,27.419,42.243
				c-35.357,27.55-58.141,70.518-58.141,118.709c0,82.95,67.482,150.43,150.429,150.43c82.948,0,150.429-67.482,150.429-150.43
				c0-48.194-22.785-91.159-58.14-118.709c16.141-7.232,27.419-23.44,27.419-42.243v-0.423c0-11.771-4.426-22.524-11.692-30.699
				L598.34,28.743C602.475,23.342,603.186,16.06,600.173,9.961z M389.954,300.616c0,5.802-4.721,10.523-10.523,10.523H232.565
				c-5.802,0-10.523-4.721-10.523-10.523v-0.423c0-5.802,4.721-10.522,10.523-10.522h146.866c5.804,0,10.523,4.719,10.523,10.522
				V300.616z M389.903,242.173l-15.172-20.283l-46.408-62.039L421.15,35.752h126.794L389.903,242.173z M63.548,35.752h127.297
				l100.832,134.793c0.003,0.004,0.006,0.009,0.009,0.013l62.355,83.361H232.565h-5.822L63.548,35.752z M420.675,461.57
				c0,63.234-51.444,114.678-114.678,114.678c-63.232,0-114.677-51.444-114.677-114.678s51.444-114.677,114.677-114.677
				C369.231,346.892,420.675,398.334,420.675,461.57z"/>
		</g>
	</g>
</g>
<g>
</g>
<g>
</g>
<g>
</g>
<g>
</g>
<g>
</g>
<g>
</g>
<g>
</g>
<g>
</g>
<g>
</g>
<g>
</g>
<g>
</g>
<g>
</g>
<g>
</g>
<g>
</g>
<g>
</g>
</svg>
