<?xml version="1.0" encoding="iso-8859-1"?>
<!-- Generator: Adobe Illustrator 18.1.1, SVG Export Plug-In . SVG Version: 6.00 Build 0)  -->
<svg version="1.1" id="Capa_1" xmlns="http://www.w3.org/2000/svg" xmlns:xlink="http://www.w3.org/1999/xlink" x="0px" y="0px"
	 viewBox="0 0 612 612" style="enable-background:new 0 0 612 612;" xml:space="preserve">
<g>
	<g>
		<path d="M596.463,194.267l-58.014-8.689v-42.411c0-10.072-8.165-18.238-18.238-18.238H18.238C8.165,124.928,0,133.095,0,143.167
			v325.667c0,10.072,8.165,18.238,18.238,18.238H520.21c10.074,0,18.238-8.166,18.238-18.238v-42.408l58.014-8.69
			c8.931-1.337,15.537-9.007,15.537-18.036V212.303C612,203.274,605.393,195.604,596.463,194.267z M575.524,383.988l-58.014,8.69
			c-8.929,1.337-15.537,9.007-15.537,18.036v39.881H36.476v-289.19h465.496v39.884c0,9.029,6.608,16.699,15.537,18.038l58.014,8.687
			V383.988z"/>
		<path d="M180.35,191.745H91.524c-10.074,0-18.238,8.166-18.238,18.238v192.033c0,10.072,8.165,18.238,18.238,18.238h88.826
			c10.074,0,18.238-8.166,18.238-18.238V209.984C198.588,199.912,190.423,191.745,180.35,191.745z M162.111,383.777h-52.35V228.22
			h52.35V383.777z"/>
		<path d="M319.288,191.745h-88.827c-10.072,0-18.238,8.166-18.238,18.238v192.033c0,10.072,8.166,18.238,18.238,18.238h88.827
			c10.072,0,18.238-8.166,18.238-18.238V209.984C337.526,199.912,329.36,191.745,319.288,191.745z M301.05,383.777h-52.351V228.22
			h52.351L301.05,383.777L301.05,383.777z"/>
		<path d="M458.226,191.745h-88.827c-10.072,0-18.238,8.166-18.238,18.238v192.033c0,10.072,8.166,18.238,18.238,18.238h88.827
			c10.072,0,18.238-8.166,18.238-18.238V209.984C476.465,199.912,468.298,191.745,458.226,191.745z M439.988,383.777h-52.351V228.22
			h52.351V383.777z"/>
	</g>
</g>
<g>
</g>
<g>
</g>
<g>
</g>
<g>
</g>
<g>
</g>
<g>
</g>
<g>
</g>
<g>
</g>
<g>
</g>
<g>
</g>
<g>
</g>
<g>
</g>
<g>
</g>
<g>
</g>
<g>
</g>
</svg>
