<?xml version="1.0" encoding="iso-8859-1"?>
<!-- Generator: Adobe Illustrator 18.1.1, SVG Export Plug-In . SVG Version: 6.00 Build 0)  -->
<svg version="1.1" id="Capa_1" xmlns="http://www.w3.org/2000/svg" xmlns:xlink="http://www.w3.org/1999/xlink" x="0px" y="0px"
	 viewBox="0 0 611.999 611.999" style="enable-background:new 0 0 611.999 611.999;" xml:space="preserve">
<path d="M472.008,49.062c-0.382-0.247-0.757-0.504-1.139-0.75C423.257,17.743,366.661,0,305.998,0C137.27,0,0,137.271,0,305.999
	s137.27,305.999,305.998,305.999c168.73,0,306.001-137.271,306.001-305.999C612,198.42,556.189,103.641,472.008,49.062z
	 M576.699,307.986c-32.485-39.791-55.435-69.69-55.71-70.049c-3.338-4.355-8.511-6.906-13.997-6.906H345.32
	c-4.678,0-9.162,1.858-12.471,5.166l-85.246,85.246c-3.307,3.308-5.166,7.794-5.166,12.471v97.004
	c0,9.74,7.897,17.637,17.637,17.637h85.246v125.306c-12.84,1.875-25.968,2.865-39.32,2.865c-55.566,0-107.267-16.836-150.293-45.662
	l-25.549-114.358c-1.213-5.432-4.922-9.974-10.003-12.25l-75.059-33.622l-2.413-39.219l69.881-9.622
	c7.072-0.973,12.859-6.113,14.661-13.019l35.274-135.218c0.726-2.782,0.761-5.698,0.101-8.497l-18.018-76.467
	c45.102-33.603,100.977-53.517,161.416-53.517c18.863,0,37.279,1.944,55.066,5.635l-53.23,27.471
	c-5.152,2.66-8.667,7.681-9.404,13.432l-14.698,114.641c-0.644,5.027,0.904,10.087,4.253,13.894
	c3.348,3.804,8.173,5.985,13.241,5.985h85.246c6.876,0,13.123-3.996,16.01-10.235l17.299-37.42l119.796,0.595
	c23.594,40.152,37.148,86.883,37.148,136.726C576.726,306.664,576.705,307.324,576.699,307.986z M514.814,133.874l-106.194-0.525
	c-0.029,0-0.059,0-0.088,0c-6.873,0-13.123,3.993-16.009,10.234l-17.326,37.476H321.27l10.972-85.578l76.99-39.736
	C450.544,72.85,486.744,99.883,514.814,133.874z M114.481,114.84l12.78,54.246L96.068,288.656l-60.628,8.348
	C37.77,226.022,67.54,161.866,114.481,114.84z M58.41,415.448l39.251,17.583l13.588,60.823
	C89.348,471.155,71.373,444.653,58.41,415.448z M380.592,566.268v-135.35c0-9.74-7.897-17.637-17.637-17.637h-85.246v-72.062
	l74.915-74.915h145.715c11.213,14.423,38.952,49.762,72.602,90.143c0.278,0.332,0.575,0.636,0.87,0.944
	C552.462,457.672,477.608,538.422,380.592,566.268z"/>
<g>
</g>
<g>
</g>
<g>
</g>
<g>
</g>
<g>
</g>
<g>
</g>
<g>
</g>
<g>
</g>
<g>
</g>
<g>
</g>
<g>
</g>
<g>
</g>
<g>
</g>
<g>
</g>
<g>
</g>
</svg>
