<?xml version="1.0" encoding="iso-8859-1"?>
<!-- Generator: Adobe Illustrator 18.1.1, SVG Export Plug-In . SVG Version: 6.00 Build 0)  -->
<svg version="1.1" id="Capa_1" xmlns="http://www.w3.org/2000/svg" xmlns:xlink="http://www.w3.org/1999/xlink" x="0px" y="0px"
	 viewBox="0 0 612 612" style="enable-background:new 0 0 612 612;" xml:space="preserve">
<g>
	<g>
		<g>
			<path d="M472.322,239.279c-1.655,0-3.31,0.03-4.969,0.088c-8.127-81.861-77.389-146.003-161.352-146.003
				c-83.964,0-153.226,64.143-161.352,146.003c-1.66-0.06-3.317-0.089-4.972-0.089C62.659,239.279,0,301.939,0,378.957
				s62.659,139.678,139.678,139.678h332.644c77.02,0,139.678-62.659,139.678-139.678C612,301.939,549.342,239.279,472.322,239.279z
				 M472.322,486.167H139.678c-59.115,0-107.209-48.094-107.209-107.209s48.094-107.209,107.209-107.209
				c5.915,0,11.893,0.495,17.769,1.472c4.742,0.787,9.592-0.566,13.238-3.699c3.647-3.132,5.72-7.719,5.658-12.528l-0.011-0.628
				c-0.004-0.283-0.011-0.567-0.011-0.852c0-71.506,58.175-129.679,129.682-129.679c71.504,0,129.679,58.175,129.679,129.679
				c0,0.283-0.005,0.566-0.011,0.847l-0.009,0.636c-0.062,4.808,2.01,9.396,5.66,12.528c3.649,3.132,8.496,4.485,13.241,3.695
				c5.857-0.975,11.832-1.471,17.76-1.471c59.115,0,107.209,48.094,107.209,107.209S531.437,486.167,472.322,486.167z"/>
			<path d="M298.279,147.479c-56.394,0-102.273,45.878-102.273,102.271c0,8.965,7.269,16.234,16.234,16.234
				c8.967,0,16.234-7.269,16.234-16.234c0-38.489,31.313-69.802,69.804-69.802c8.965,0,16.234-7.269,16.234-16.234
				C314.513,154.747,307.243,147.479,298.279,147.479z"/>
		</g>
	</g>
</g>
<g>
</g>
<g>
</g>
<g>
</g>
<g>
</g>
<g>
</g>
<g>
</g>
<g>
</g>
<g>
</g>
<g>
</g>
<g>
</g>
<g>
</g>
<g>
</g>
<g>
</g>
<g>
</g>
<g>
</g>
</svg>
