<?xml version="1.0" encoding="iso-8859-1"?>
<!-- Generator: Adobe Illustrator 18.1.1, SVG Export Plug-In . SVG Version: 6.00 Build 0)  -->
<svg version="1.1" id="Capa_1" xmlns="http://www.w3.org/2000/svg" xmlns:xlink="http://www.w3.org/1999/xlink" x="0px" y="0px"
	 viewBox="0 0 611.998 611.998" style="enable-background:new 0 0 611.998 611.998;" xml:space="preserve">
<g>
	<g>
		<g>
			<path d="M553.818,0H58.181C26.1,0,0,26.099,0,58.181v495.637c0,32.08,26.1,58.181,58.181,58.181h495.637
				c32.08,0,58.181-26.1,58.181-58.181V58.181C612,26.099,585.9,0,553.818,0z M573.648,553.818c0,10.934-8.895,19.828-19.828,19.828
				H58.181c-10.934,0-19.828-8.895-19.828-19.828V58.181c0-10.934,8.895-19.828,19.828-19.828h495.637
				c10.934,0,19.828,8.895,19.828,19.828v495.637H573.648z"/>
			<path d="M427.519,290.797L147.417,75.442c-5.791-4.452-13.607-5.229-20.162-2.001c-6.553,3.23-10.702,9.898-10.702,17.204
				v430.708c0,7.305,4.15,13.975,10.702,17.204c2.688,1.323,5.587,1.972,8.471,1.972c4.153,0,8.276-1.347,11.691-3.973
				l280.102-215.357c4.721-3.629,7.488-9.248,7.488-15.204C435.007,300.043,432.239,294.425,427.519,290.797z M154.905,482.423
				V129.578l229.465,176.419L154.905,482.423z"/>
			<path d="M206.329,414.791c4.08,0,8.19-1.294,11.675-3.974l118.434-91.055c8.396-6.454,9.968-18.494,3.514-26.89
				c-6.458-8.396-18.494-9.97-26.891-3.514l-118.434,91.055c-8.396,6.456-9.968,18.494-3.514,26.89
				C194.891,412.215,200.578,414.791,206.329,414.791z"/>
			<path d="M476.271,71.47c-10.59,0-19.176,8.585-19.176,19.176v430.708c0,10.592,8.586,19.176,19.176,19.176
				c10.59,0,19.176-8.585,19.176-19.176V90.646C495.447,80.054,486.861,71.47,476.271,71.47z"/>
		</g>
	</g>
</g>
<g>
</g>
<g>
</g>
<g>
</g>
<g>
</g>
<g>
</g>
<g>
</g>
<g>
</g>
<g>
</g>
<g>
</g>
<g>
</g>
<g>
</g>
<g>
</g>
<g>
</g>
<g>
</g>
<g>
</g>
</svg>
