<?xml version="1.0" encoding="iso-8859-1"?>
<!-- Generator: Adobe Illustrator 18.1.1, SVG Export Plug-In . SVG Version: 6.00 Build 0)  -->
<svg version="1.1" id="Capa_1" xmlns="http://www.w3.org/2000/svg" xmlns:xlink="http://www.w3.org/1999/xlink" x="0px" y="0px"
	 viewBox="0 0 612 612" style="enable-background:new 0 0 612 612;" xml:space="preserve">
<g>
	<g>
		<g>
			<path d="M340.241,109.421c-30.833-30.834-71.83-47.816-115.435-47.816c-43.604,0-84.601,16.981-115.431,47.816
				c-30.836,30.833-47.817,71.83-47.817,115.432c0,43.607,16.981,84.602,47.817,115.435c30.83,30.833,71.827,47.817,115.431,47.817
				c43.607,0,84.602-16.984,115.435-47.817C403.889,276.638,403.889,173.072,340.241,109.421z M315.723,315.771
				c-24.284,24.287-56.572,37.662-90.919,37.662c-34.342,0-66.629-13.377-90.913-37.662c-24.287-24.286-37.661-56.572-37.661-90.917
				c0-34.342,13.375-66.632,37.661-90.917c24.284-24.286,56.569-37.658,90.913-37.658c34.345,0,66.634,13.374,90.919,37.658
				C365.853,184.069,365.853,265.641,315.723,315.771z"/>
			<path d="M595.832,509.738c-0.29-0.341-0.598-0.673-0.917-0.994L421.054,334.656c47.856-85.611,35.44-196.102-37.249-268.797
				C341.333,23.39,284.865,0,224.803,0C164.742,0,108.277,23.387,65.811,65.856c-87.674,87.672-87.674,230.326,0,317.997
				c42.469,42.469,98.934,65.86,158.995,65.86c39.03,0,76.534-9.885,109.671-28.455l174.225,173.714
				c0.331,0.329,0.672,0.641,1.021,0.939c11.603,10.74,26.499,16.09,41.388,16.09c15.664-0.001,31.321-5.923,43.119-17.722
				C617.25,571.258,617.887,533.544,595.832,509.738z M569.712,569.762c-10.031,10.031-26.518,10.21-36.758,0.399
				c-0.127-0.123-0.257-0.241-0.387-0.36l-126.86-126.486l38.897-36.015l125.187,125.353c0.104,0.114,0.209,0.228,0.316,0.341
				C579.919,543.242,579.741,559.733,569.712,569.762z M224.806,415.04c-50.799,0-98.557-19.782-134.477-55.704
				c-74.154-74.154-74.154-194.811,0-268.962c35.917-35.92,83.673-55.701,134.474-55.701c50.802,0,98.563,19.782,134.485,55.705
				c74.148,74.15,74.148,194.806,0,268.959C323.367,395.257,275.607,415.04,224.806,415.04z M383.805,383.853
				c6.326-6.328,12.185-12.95,17.599-19.81l18.683,18.708l-38.951,36.066l-17.276-17.228
				C370.794,396.11,377.458,390.199,383.805,383.853z"/>
			<path d="M276.588,206.8h-107.88c-9.574,0-17.337,7.762-17.337,17.337c0,9.574,7.762,17.337,17.337,17.337h36.603h34.673h36.603
				c9.574,0,17.337-7.762,17.337-17.337C293.925,214.563,286.163,206.8,276.588,206.8z"/>
		</g>
	</g>
</g>
<g>
</g>
<g>
</g>
<g>
</g>
<g>
</g>
<g>
</g>
<g>
</g>
<g>
</g>
<g>
</g>
<g>
</g>
<g>
</g>
<g>
</g>
<g>
</g>
<g>
</g>
<g>
</g>
<g>
</g>
</svg>
