<?xml version="1.0" standalone="no"?>
<!DOCTYPE svg PUBLIC "-//W3C//DTD SVG 20010904//EN"
 "http://www.w3.org/TR/2001/REC-SVG-20010904/DTD/svg10.dtd">
<svg version="1.0" xmlns="http://www.w3.org/2000/svg"
 width="487.000000pt" height="175.000000pt" viewBox="0 0 487.000000 175.000000"
 preserveAspectRatio="xMidYMid meet">

<g transform="translate(0.000000,175.000000) scale(0.100000,-0.100000)"
fill="#000000" stroke="none">
<path d="M3485 1692 c-139 -85 -245 -395 -261 -767 -6 -130 -6 -130 -54 -230
-49 -103 -107 -175 -139 -175 -39 0 -41 69 -6 309 18 123 23 177 15 186 -15
19 -65 26 -98 14 -27 -9 -31 -17 -42 -77 -17 -93 -81 -285 -129 -387 -51 -108
-96 -167 -125 -163 -18 3 -21 11 -24 63 -2 33 4 145 14 248 26 274 9 337 -93
337 -71 0 -129 -37 -185 -120 -16 -24 -16 -23 -17 53 -1 138 -35 207 -103 207
-66 0 -107 -54 -163 -215 -18 -53 -36 -99 -39 -102 -3 -3 -4 27 -3 68 2 69 1
73 -25 88 -20 11 -35 13 -63 6 -34 -9 -39 -15 -55 -67 -18 -59 -81 -181 -133
-258 -64 -93 -186 -205 -204 -186 -11 11 85 458 116 540 14 36 2 53 -45 62
-57 11 -82 -1 -95 -46 l-12 -40 -33 39 c-26 29 -46 42 -83 51 -123 29 -209
-39 -261 -205 -19 -61 -31 -78 -89 -135 l-66 -65 16 -62 c28 -102 33 -215 15
-323 -19 -108 -42 -189 -61 -209 -11 -11 -15 -10 -25 10 -16 29 -8 342 15 549
21 195 21 196 61 220 74 47 189 234 240 395 66 203 5 343 -133 306 -126 -34
-217 -235 -280 -618 -26 -156 -29 -166 -62 -205 -50 -58 -119 -88 -206 -88
-107 0 -196 25 -527 145 -37 14 -38 13 -38 -9 0 -18 12 -27 72 -51 221 -86
376 -125 495 -125 97 0 142 15 202 66 l34 28 -6 -49 c-14 -113 -18 -336 -8
-430 21 -195 52 -250 131 -226 51 15 92 66 120 149 31 90 40 330 16 440 l-15
73 37 34 37 34 12 -47 c40 -155 173 -157 290 -4 l32 42 -6 -103 c-9 -168 10
-217 85 -217 80 1 194 110 307 294 l54 89 3 -108 3 -109 35 -9 c25 -6 43 -5
65 6 27 13 32 23 53 108 12 52 38 144 58 204 63 200 101 226 97 67 -1 -48 -10
-136 -19 -197 -26 -167 -26 -168 19 -179 70 -18 88 -3 123 104 79 241 157 336
179 219 4 -19 -1 -109 -10 -200 -36 -353 -20 -429 90 -429 86 0 159 68 229
212 25 52 46 102 46 111 0 9 5 17 10 17 6 0 10 -15 10 -33 0 -50 26 -126 51
-153 27 -28 84 -32 129 -9 37 19 90 86 127 159 l30 59 11 -102 c7 -55 22 -131
34 -168 39 -114 92 -129 173 -49 46 47 76 97 125 211 40 95 50 109 50 72 0
-36 25 -83 49 -97 80 -42 174 40 241 212 34 88 42 94 35 27 -2 -29 -7 -92 -11
-139 l-6 -85 -61 -35 c-80 -46 -148 -114 -183 -181 -38 -74 -41 -185 -6 -241
29 -46 72 -62 131 -49 125 28 205 165 249 427 17 99 18 101 69 153 35 35 71
90 113 172 89 170 150 220 315 256 69 15 195 13 288 -3 33 -6 37 -4 37 14 0
27 -23 32 -165 39 -261 11 -408 -70 -520 -286 -25 -49 -61 -106 -79 -127 l-33
-38 5 184 c4 169 3 184 -14 197 -22 16 -65 17 -98 2 -19 -9 -30 -28 -46 -83
-35 -118 -80 -239 -106 -284 -62 -106 -83 5 -38 210 41 191 40 174 4 186 -41
15 -88 5 -105 -22 -7 -11 -18 -46 -25 -76 -22 -96 -110 -341 -160 -445 -49
-103 -83 -146 -100 -129 -40 40 -38 580 1 592 38 12 137 132 186 227 119 231
138 418 49 480 -29 21 -105 19 -141 -3z m151 -97 c14 -74 -27 -220 -104 -368
-47 -92 -141 -208 -142 -174 -1 58 85 363 131 466 51 112 102 145 115 76z
m-2416 -74 c28 -53 -11 -216 -91 -378 -49 -99 -138 -212 -146 -186 -13 39 103
434 153 520 35 61 66 77 84 44z m218 -475 c13 -11 30 -33 38 -49 14 -26 12
-33 -42 -138 -64 -124 -115 -189 -138 -170 -48 40 -4 333 57 376 25 17 52 11
85 -19z m2457 -613 c-43 -182 -118 -310 -177 -301 -20 3 -23 9 -26 53 -7 98
42 189 139 260 34 25 65 45 69 45 5 0 2 -26 -5 -57z"/>
<path d="M2962 1244 c-12 -8 -22 -24 -22 -34 0 -21 36 -50 62 -50 19 0 58 34
58 50 0 16 -39 50 -58 50 -10 0 -28 -7 -40 -16z"/>
</g>
</svg>
